<?xml version="1.0" encoding="UTF-8"?>
<svg id="Layer_2" data-name="Layer 2" xmlns="http://www.w3.org/2000/svg" width="231.66" height="231.61" viewBox="0 0 231.66 231.61">
  <defs>
    <style>
      .cls-1 {
        fill: #69569a;
      }

      .cls-2 {
        fill: #fff;
      }

      .cls-3 {
        fill: #d1394f;
      }

      .cls-4 {
        isolation: isolate;
      }

      .cls-5 {
        fill: #f39c12;
      }

      .cls-6 {
        fill: #00bfe2;
      }

      .cls-7 {
        fill: #eb6224;
      }
    </style>
  </defs>
  <g id="Layer_1-2" data-name="Layer 1">
    <g>
      <g>
        <path class="cls-3" d="M115.85,115.8V.5c63.68,0,115.3,51.62,115.3,115.3s-51.62,115.3-115.3,115.3c-35.09,0-68.27-15.98-90.15-43.41l90.15-71.89h0"/>
        <path class="cls-2" d="M115.85,231.61c-35.44,0-68.44-15.89-90.54-43.6l-.31-.39.39-.31,89.96-71.74V0h.5c63.85,0,115.8,51.95,115.8,115.8s-51.95,115.8-115.8,115.8ZM26.41,187.77c21.91,27.23,54.48,42.84,89.45,42.84,63.3,0,114.8-51.5,114.8-114.8S179.43,1.27,116.35,1v115.04l-.19.15L26.41,187.77Z"/>
      </g>
      <g>
        <path class="cls-7" d="M115.85,115.8L41.74,27.48c11.78-9.89,25.43-17.32,40.13-21.85l33.99,110.18h0"/>
        <path class="cls-2" d="M115.47,116.13L41.03,27.41l.38-.32c11.9-9.98,25.46-17.37,40.3-21.95l.48-.15,34.13,110.66-.86.47ZM42.44,27.54l72.21,86.05L81.54,6.25c-14.37,4.5-27.52,11.66-39.09,21.29Z"/>
      </g>
      <g>
        <path class="cls-5" d="M115.85,115.8L6.55,79.08c6.76-20.11,18.93-37.97,35.18-51.61l74.12,88.33h0"/>
        <path class="cls-2" d="M117.38,116.84L5.92,79.4l.16-.47c6.79-20.21,19.01-38.13,35.34-51.83l.38-.32,75.58,90.07ZM7.19,78.77l107.14,36L41.68,28.18c-15.87,13.43-27.78,30.91-34.49,50.59Z"/>
      </g>
      <g>
        <path class="cls-1" d="M115.85,115.8L81.87,5.62C92.88,2.23,104.33.5,115.85.5v115.3h0"/>
        <path class="cls-2" d="M115.38,115.95L81.24,5.29l.48-.15C92.79,1.73,104.27,0,115.85,0h.5v115.8l-.98.15ZM82.49,5.95l32.86,106.53V1c-11.15.05-22.2,1.71-32.86,4.95Z"/>
      </g>
      <g>
        <path class="cls-6" d="M115.85,115.8L25.7,187.7C1.3,157.09-5.92,116.19,6.55,79.08l109.3,36.72h0"/>
        <path class="cls-2" d="M25.63,188.4l-.31-.39C.69,157.13-6.5,116.35,6.08,78.92l.16-.47,110.64,37.17L25.63,188.4ZM6.87,79.71c-12.2,36.82-5.14,76.85,18.92,107.28l89.04-71.01L6.87,79.71Z"/>
      </g>
      <g class="cls-4">
        <path class="cls-2" d="M28.75,65.56c-.55-.2-.95-.49-1.21-.86-.26-.37-.4-.81-.4-1.33,0-.78.28-1.44.84-1.97s1.31-.8,2.24-.8,1.69.27,2.26.82c.57.54.86,1.21.86,1.99,0,.5-.13.93-.39,1.3-.26.37-.66.65-1.19.85.66.21,1.16.56,1.5,1.04.34.48.52,1.05.52,1.71,0,.92-.32,1.69-.97,2.31s-1.5.94-2.56.94-1.91-.31-2.56-.94-.97-1.41-.97-2.34c0-.7.18-1.28.53-1.75.35-.47.86-.79,1.51-.96ZM28.07,68.28c0,.38.09.74.27,1.09.18.35.44.62.79.82.35.19.73.29,1.13.29.63,0,1.15-.2,1.56-.61.41-.4.61-.92.61-1.54s-.21-1.16-.63-1.57c-.42-.41-.95-.62-1.58-.62s-1.13.21-1.54.61-.61.92-.61,1.54ZM28.49,63.33c0,.51.16.92.49,1.24.33.32.75.48,1.27.48s.92-.16,1.25-.48c.32-.32.49-.71.49-1.17s-.17-.89-.5-1.22c-.33-.33-.75-.49-1.25-.49s-.92.16-1.25.48c-.33.32-.5.71-.5,1.16Z"/>
        <path class="cls-2" d="M35.79,71.37v-1.5h1.5v1.5h-1.5Z"/>
        <path class="cls-2" d="M39.3,62.06v-1.26h6.94v1.02c-.68.73-1.36,1.69-2.03,2.9-.67,1.2-1.19,2.44-1.55,3.71-.26.9-.43,1.88-.5,2.95h-1.35c.01-.84.18-1.86.5-3.06.32-1.19.77-2.35,1.36-3.46.59-1.11,1.22-2.04,1.89-2.8h-5.25Z"/>
        <path class="cls-2" d="M47.79,63.23c0-.77.19-1.42.58-1.95.38-.54.94-.8,1.67-.8.67,0,1.23.24,1.67.72.44.48.66,1.19.66,2.12s-.22,1.6-.67,2.09-1,.73-1.65.73-1.19-.24-1.62-.72-.65-1.21-.65-2.19ZM50.08,61.38c-.33,0-.6.14-.82.42s-.33.8-.33,1.56c0,.69.11,1.17.33,1.45.22.28.49.42.81.42s.61-.14.82-.42c.22-.28.33-.8.33-1.55,0-.69-.11-1.18-.33-1.46-.22-.28-.49-.42-.82-.42ZM50.09,71.77l5.87-11.3h1.07l-5.84,11.3h-1.09ZM54.73,68.86c0-.77.19-1.42.58-1.96.39-.53.95-.8,1.68-.8.67,0,1.23.24,1.67.72.44.48.66,1.19.66,2.12s-.22,1.61-.67,2.1c-.45.49-1,.73-1.66.73s-1.19-.24-1.62-.73c-.43-.48-.65-1.21-.65-2.18ZM57.02,67.01c-.33,0-.61.14-.82.42-.22.28-.33.8-.33,1.56,0,.68.11,1.17.33,1.45.22.28.49.42.81.42s.61-.14.83-.42c.22-.28.33-.8.33-1.55,0-.69-.11-1.18-.33-1.46s-.49-.42-.82-.42Z"/>
      </g>
      <g class="cls-4">
        <path class="cls-2" d="M16.95,135.13h-1.32v-8.39c-.32.3-.73.6-1.25.91-.51.3-.98.53-1.39.68v-1.27c.74-.35,1.38-.77,1.93-1.26s.94-.97,1.17-1.43h.85v10.76Z"/>
        <path class="cls-2" d="M20.32,132.33l1.38-.12c.1.67.34,1.18.71,1.52s.82.51,1.35.51c.63,0,1.17-.24,1.61-.72s.66-1.11.66-1.9-.21-1.34-.63-1.78c-.42-.43-.97-.65-1.66-.65-.42,0-.81.1-1.15.29-.34.19-.61.44-.8.75l-1.24-.16,1.04-5.51h5.33v1.26h-4.28l-.58,2.88c.64-.45,1.32-.67,2.03-.67.94,0,1.73.33,2.37.97.64.65.96,1.48.96,2.5s-.28,1.81-.85,2.52c-.69.87-1.63,1.3-2.82,1.3-.97,0-1.77-.27-2.39-.82-.62-.55-.97-1.27-1.06-2.17Z"/>
        <path class="cls-2" d="M29.39,135.13v-1.5h1.5v1.5h-1.5Z"/>
        <path class="cls-2" d="M33.01,132.66l1.26-.12c.11.59.31,1.03.61,1.29.3.27.69.4,1.16.4.4,0,.76-.09,1.06-.28.3-.18.55-.43.75-.74.19-.31.36-.73.49-1.25.13-.53.2-1.06.2-1.61,0-.06,0-.15,0-.26-.26.42-.62.76-1.08,1.02-.46.26-.95.39-1.48.39-.89,0-1.64-.32-2.25-.96s-.92-1.49-.92-2.54.32-1.96.96-2.62c.64-.66,1.44-1,2.41-1,.7,0,1.33.19,1.91.56.58.38,1.02.91,1.32,1.61.3.69.45,1.7.45,3.02s-.15,2.46-.45,3.27c-.3.81-.74,1.43-1.33,1.85-.59.42-1.28.64-2.07.64-.84,0-1.52-.23-2.05-.7-.53-.47-.85-1.12-.96-1.96ZM38.4,127.92c0-.76-.2-1.36-.6-1.8-.4-.44-.89-.67-1.45-.67s-1.09.24-1.53.72c-.43.48-.65,1.1-.65,1.86,0,.68.21,1.24.62,1.66.41.43.92.64,1.52.64s1.11-.21,1.5-.64c.39-.43.59-1.02.59-1.77Z"/>
        <path class="cls-2" d="M41.39,126.99c0-.77.19-1.42.58-1.95.38-.54.94-.8,1.67-.8.67,0,1.23.24,1.67.72.44.48.66,1.19.66,2.12s-.22,1.6-.67,2.09-1,.73-1.65.73-1.19-.24-1.62-.72-.65-1.21-.65-2.19ZM43.68,125.14c-.33,0-.6.14-.82.42s-.33.8-.33,1.56c0,.69.11,1.17.33,1.45.22.28.49.42.81.42s.61-.14.82-.42c.22-.28.33-.8.33-1.55,0-.69-.11-1.18-.33-1.46-.22-.28-.49-.42-.82-.42ZM43.69,135.53l5.87-11.3h1.07l-5.84,11.3h-1.09ZM48.32,132.62c0-.77.19-1.42.58-1.96.39-.53.95-.8,1.68-.8.67,0,1.23.24,1.67.72.44.48.66,1.19.66,2.12s-.22,1.61-.67,2.1c-.45.49-1,.73-1.66.73s-1.19-.24-1.62-.73c-.43-.48-.65-1.21-.65-2.18ZM50.62,130.77c-.33,0-.61.14-.82.42-.22.28-.33.8-.33,1.56,0,.68.11,1.17.33,1.45.22.28.49.42.81.42s.61-.14.83-.42c.22-.28.33-.8.33-1.55,0-.69-.11-1.18-.33-1.46s-.49-.42-.82-.42Z"/>
      </g>
      <g class="cls-4">
        <path class="cls-2" d="M172.46,152.7l-1.31.1c-.12-.52-.28-.89-.5-1.13-.36-.38-.79-.56-1.32-.56-.42,0-.79.12-1.1.35-.41.3-.74.74-.98,1.32-.24.58-.36,1.41-.37,2.48.32-.48.7-.84,1.16-1.08.46-.23.94-.35,1.44-.35.88,0,1.62.32,2.24.97.62.65.92,1.48.92,2.5,0,.67-.14,1.3-.43,1.88-.29.58-.69,1.02-1.2,1.33-.51.31-1.08.46-1.73.46-1.1,0-1.99-.4-2.68-1.21s-1.04-2.14-1.04-3.99c0-2.07.38-3.58,1.15-4.52.67-.82,1.57-1.23,2.7-1.23.84,0,1.54.24,2.07.71.54.47.86,1.13.97,1.96ZM167.09,157.32c0,.45.1.89.29,1.3.19.41.46.73.81.95.35.22.71.33,1.09.33.56,0,1.03-.22,1.43-.67.4-.45.6-1.06.6-1.83s-.2-1.33-.59-1.75c-.4-.43-.89-.64-1.49-.64s-1.1.21-1.51.64c-.41.43-.62.99-.62,1.68Z"/>
        <path class="cls-2" d="M178.18,160.79v-2.57h-4.65v-1.21l4.89-6.95h1.08v6.95h1.45v1.21h-1.45v2.57h-1.32ZM178.18,157.02v-4.83l-3.36,4.83h3.36Z"/>
        <path class="cls-2" d="M183.03,160.79v-1.5h1.5v1.5h-1.5Z"/>
        <path class="cls-2" d="M186.46,157.96l1.32-.18c.15.75.41,1.28.77,1.61.36.33.81.49,1.33.49.62,0,1.14-.21,1.57-.64s.64-.96.64-1.59-.2-1.1-.59-1.5-.9-.59-1.51-.59c-.25,0-.56.05-.93.15l.15-1.16c.09,0,.16.01.21.01.56,0,1.07-.15,1.51-.44.45-.29.67-.74.67-1.35,0-.48-.16-.88-.49-1.2-.33-.32-.75-.47-1.26-.47s-.94.16-1.28.48c-.34.32-.56.8-.66,1.45l-1.32-.23c.16-.88.53-1.57,1.1-2.05.57-.48,1.28-.73,2.13-.73.58,0,1.12.13,1.62.38s.87.59,1.13,1.03.39.89.39,1.38-.12.88-.37,1.27c-.25.38-.62.68-1.1.91.63.15,1.13.45,1.48.91.35.46.53,1.04.53,1.73,0,.94-.34,1.73-1.02,2.38s-1.54.98-2.59.98c-.94,0-1.72-.28-2.34-.84-.62-.56-.98-1.29-1.06-2.18Z"/>
        <path class="cls-2" d="M195.03,152.65c0-.77.19-1.42.58-1.95.38-.54.94-.8,1.67-.8.67,0,1.23.24,1.67.72.44.48.66,1.19.66,2.12s-.22,1.6-.67,2.09-1,.73-1.65.73-1.19-.24-1.62-.72-.65-1.21-.65-2.19ZM197.32,150.8c-.33,0-.6.14-.82.42s-.33.8-.33,1.56c0,.69.11,1.17.33,1.45.22.28.49.42.81.42s.61-.14.82-.42c.22-.28.33-.8.33-1.55,0-.69-.11-1.18-.33-1.46-.22-.28-.49-.42-.82-.42ZM197.33,161.19l5.87-11.3h1.07l-5.84,11.3h-1.09ZM201.96,158.28c0-.77.19-1.42.58-1.96.39-.53.95-.8,1.68-.8.67,0,1.23.24,1.67.72.44.48.66,1.19.66,2.12s-.22,1.61-.67,2.1c-.45.49-1,.73-1.66.73s-1.19-.24-1.62-.73c-.43-.48-.65-1.21-.65-2.18ZM204.26,156.43c-.33,0-.61.14-.82.42-.22.28-.33.8-.33,1.56,0,.68.11,1.17.33,1.45.22.28.49.42.81.42s.61-.14.83-.42c.22-.28.33-.8.33-1.55,0-.69-.11-1.18-.33-1.46s-.49-.42-.82-.42Z"/>
      </g>
    </g>
  </g>
</svg>