<?xml version="1.0" encoding="UTF-8"?>
<svg id="Layer_2" data-name="Layer 2" xmlns="http://www.w3.org/2000/svg" width="231.61" height="231.61" viewBox="0 0 231.61 231.61">
  <defs>
    <style>
      .cls-1 {
        fill: #fff;
      }

      .cls-2 {
        fill: #d1394f;
      }

      .cls-3 {
        fill: #659780;
      }

      .cls-4 {
        isolation: isolate;
      }

      .cls-5 {
        fill: #dedc4a;
      }

      .cls-6 {
        fill: #fef3e1;
      }
    </style>
  </defs>
  <g id="Layer_1-2" data-name="Layer 1">
    <g>
      <g>
        <g>
          <path class="cls-2" d="M115.8,115.8l2.28,115.28C54.41,232.35,1.78,181.75.52,118.08-.09,86.92,11.94,56.83,33.87,34.68l81.93,81.13h0"/>
          <path class="cls-1" d="M115.77,231.61C52.97,231.61,1.27,181.16.02,118.09c-.62-31.12,11.59-61.65,33.49-83.77l.35-.36.36.35,82.08,81.27v.2s2.29,115.78,2.29,115.78h-.5c-.77.03-1.55.03-2.32.03ZM33.87,35.38C12.39,57.28.42,87.39,1.02,118.07c1.24,62.52,52.49,112.54,114.75,112.54.6,0,1.2,0,1.8-.01l-2.26-114.58L33.87,35.38Z"/>
        </g>
        <g>
          <path class="cls-3" d="M115.8,115.8V.5c63.68,0,115.3,51.62,115.3,115.3,0,62.79-50.25,114.04-113.03,115.28l-2.28-115.28h0"/>
          <path class="cls-1" d="M117.59,231.6l-2.29-115.79V0h.5c63.85,0,115.8,51.95,115.8,115.8,0,30.5-11.76,59.29-33.11,81.07-21.35,21.78-49.91,34.11-80.4,34.71h-.5ZM116.3,115.8l2.27,114.78c61.82-1.49,112.04-52.87,112.04-114.77S179.38,1.27,116.3,1v114.8Z"/>
        </g>
        <g>
          <path class="cls-5" d="M115.8.5v115.3h-.01S33.87,34.68,33.87,34.68c8.56-8.66,18.45-15.9,29.28-21.46,6.76-3.47,13.85-6.27,21.16-8.33,4.38-1.25,8.84-2.24,13.34-2.95,3-.48,6.02-.84,9.05-1.08s6.07-.36,9.1-.36Z"/>
          <path class="cls-1" d="M116.3,117.01l-.85-.85L33.17,34.68l.35-.36c8.6-8.7,18.49-15.95,29.41-21.55,6.81-3.5,13.96-6.31,21.25-8.37,4.41-1.26,8.92-2.26,13.4-2.96,3-.48,6.06-.84,9.09-1.08,3.03-.24,6.1-.36,9.14-.36h.5v117.01ZM34.58,34.68l80.72,79.92V1c-2.85.01-5.72.13-8.56.36-3,.24-6.03.6-9.01,1.08-4.44.7-8.91,1.69-13.28,2.94-7.23,2.04-14.32,4.83-21.07,8.29-10.67,5.48-20.36,12.55-28.8,21.01Z"/>
        </g>
        <g class="cls-4">
          <path class="cls-1" d="M141.34,92.62v-2.57h-4.65v-1.21l4.89-6.95h1.08v6.95h1.45v1.21h-1.45v2.57h-1.32ZM141.34,88.84v-4.83l-3.36,4.83h3.36Z"/>
          <path class="cls-1" d="M145.64,90.14l1.26-.12c.11.59.31,1.03.61,1.29.3.27.69.4,1.16.4.4,0,.76-.09,1.06-.28.3-.18.55-.43.75-.74.19-.31.36-.73.49-1.25.13-.53.2-1.06.2-1.61,0-.06,0-.15,0-.26-.26.42-.62.76-1.08,1.02-.46.26-.95.39-1.48.39-.89,0-1.64-.32-2.25-.96s-.92-1.49-.92-2.54.32-1.96.96-2.62c.64-.66,1.44-1,2.41-1,.7,0,1.33.19,1.91.56.58.38,1.02.91,1.32,1.61.3.69.45,1.7.45,3.02s-.15,2.46-.45,3.27c-.3.81-.74,1.43-1.33,1.85-.59.42-1.28.64-2.07.64-.84,0-1.52-.23-2.05-.7-.53-.47-.85-1.12-.96-1.96ZM151.03,85.41c0-.76-.2-1.36-.6-1.8-.4-.44-.89-.67-1.45-.67s-1.09.24-1.53.72c-.43.48-.65,1.1-.65,1.86,0,.68.21,1.24.62,1.66.41.43.92.64,1.52.64s1.11-.21,1.5-.64c.39-.43.59-1.02.59-1.77Z"/>
          <path class="cls-1" d="M154.51,92.62v-1.5h1.5v1.5h-1.5Z"/>
          <path class="cls-1" d="M158.02,83.3v-1.26h6.94v1.02c-.68.73-1.36,1.69-2.03,2.9-.67,1.2-1.19,2.44-1.55,3.71-.26.9-.43,1.88-.5,2.95h-1.35c.01-.84.18-1.86.5-3.06.32-1.19.77-2.35,1.36-3.46.59-1.11,1.22-2.04,1.89-2.8h-5.25Z"/>
          <path class="cls-1" d="M166.51,84.47c0-.77.19-1.42.58-1.95.38-.54.94-.8,1.67-.8.67,0,1.23.24,1.67.72.44.48.66,1.19.66,2.12s-.22,1.6-.67,2.09-1,.73-1.65.73-1.19-.24-1.62-.72-.65-1.21-.65-2.19ZM168.8,82.62c-.33,0-.6.14-.82.42s-.33.8-.33,1.56c0,.69.11,1.17.33,1.45.22.28.49.42.81.42s.61-.14.82-.42c.22-.28.33-.8.33-1.55,0-.69-.11-1.18-.33-1.46-.22-.28-.49-.42-.82-.42ZM168.81,93.01l5.87-11.3h1.07l-5.84,11.3h-1.09ZM173.45,90.1c0-.77.19-1.42.58-1.96.39-.53.95-.8,1.68-.8.67,0,1.23.24,1.67.72.44.48.66,1.19.66,2.12s-.22,1.61-.67,2.1c-.45.49-1,.73-1.66.73s-1.19-.24-1.62-.73c-.43-.48-.65-1.21-.65-2.18ZM175.74,88.25c-.33,0-.61.14-.82.42-.22.28-.33.8-.33,1.56,0,.68.11,1.17.33,1.45.22.28.49.42.81.42s.61-.14.83-.42c.22-.28.33-.8.33-1.55,0-.69-.11-1.18-.33-1.46s-.49-.42-.82-.42Z"/>
        </g>
        <g class="cls-4">
          <path class="cls-1" d="M26.06,107.74l1.32-.18c.15.75.41,1.28.77,1.61.36.33.8.49,1.33.49.62,0,1.14-.21,1.57-.64.43-.43.64-.96.64-1.59s-.2-1.1-.59-1.5-.9-.59-1.51-.59c-.25,0-.56.05-.93.15l.15-1.16c.09,0,.16.01.21.01.56,0,1.07-.15,1.51-.44.45-.29.67-.74.67-1.35,0-.48-.16-.88-.49-1.2-.33-.32-.75-.47-1.27-.47s-.94.16-1.28.48c-.34.32-.56.8-.66,1.45l-1.32-.23c.16-.88.53-1.57,1.1-2.05.57-.48,1.28-.73,2.13-.73.59,0,1.12.13,1.62.38s.87.59,1.13,1.03c.26.43.39.89.39,1.38s-.12.88-.37,1.27c-.25.38-.62.68-1.11.91.63.15,1.13.45,1.48.91.35.46.53,1.04.53,1.73,0,.94-.34,1.73-1.02,2.38-.68.65-1.54.98-2.59.98-.94,0-1.72-.28-2.34-.84-.62-.56-.98-1.29-1.06-2.18Z"/>
          <path class="cls-1" d="M34.47,101.25v-1.26h6.94v1.02c-.68.73-1.36,1.69-2.03,2.9-.67,1.2-1.19,2.44-1.55,3.71-.26.9-.43,1.88-.5,2.95h-1.35c.01-.84.18-1.86.5-3.06.32-1.19.77-2.35,1.36-3.46s1.22-2.04,1.89-2.8h-5.25Z"/>
          <path class="cls-1" d="M43.45,110.57v-1.5h1.5v1.5h-1.5Z"/>
          <path class="cls-1" d="M46.96,101.25v-1.26h6.94v1.02c-.68.73-1.36,1.69-2.03,2.9-.67,1.2-1.19,2.44-1.55,3.71-.26.9-.43,1.88-.5,2.95h-1.35c.01-.84.18-1.86.5-3.06.32-1.19.77-2.35,1.36-3.46s1.22-2.04,1.89-2.8h-5.25Z"/>
          <path class="cls-1" d="M55.45,102.42c0-.77.19-1.42.58-1.95s.94-.8,1.67-.8c.67,0,1.23.24,1.67.72.44.48.66,1.19.66,2.12s-.22,1.6-.67,2.09c-.45.49-1,.73-1.65.73s-1.19-.24-1.62-.72-.65-1.21-.65-2.19ZM57.74,100.58c-.33,0-.6.14-.81.42s-.33.8-.33,1.56c0,.69.11,1.17.33,1.45.22.28.49.42.81.42s.61-.14.82-.42c.22-.28.33-.8.33-1.55,0-.69-.11-1.18-.33-1.46-.22-.28-.49-.42-.82-.42ZM57.74,110.97l5.87-11.3h1.07l-5.84,11.3h-1.09ZM62.38,108.06c0-.77.19-1.42.58-1.96.39-.53.95-.8,1.68-.8.67,0,1.23.24,1.67.72.44.48.66,1.19.66,2.12s-.22,1.61-.67,2.1c-.45.49-1,.73-1.66.73s-1.19-.24-1.62-.73c-.43-.48-.65-1.21-.65-2.18ZM64.67,106.21c-.33,0-.61.14-.82.42-.22.28-.32.8-.32,1.56,0,.68.11,1.17.33,1.45.22.28.49.42.81.42s.61-.14.83-.42c.22-.28.32-.8.32-1.55,0-.69-.11-1.18-.33-1.46-.22-.28-.49-.42-.82-.42Z"/>
        </g>
      </g>
      <path class="cls-6" d="M192.69,136.98c-.1.16-.21.32-.32.46l7.79,4.76c1.59.96,2.09,3.04,1.12,4.63-.97,1.59-3.05,2.09-4.64,1.12l-4.4-2.69-3.31,5.41c-2.6,4.25-5.97,7.98-9.95,10.99l-24.57,18.56c-.76.58-1.75-.32-1.25-1.13l25.69-42.03-4.4-2.69c-1.04-.64-1.62-1.75-1.62-2.88,0-.6.17-1.2.5-1.75.97-1.59,3.04-2.09,4.63-1.12l7.8,4.76c.07-.17.16-.33.25-.49l9.83-16.08c.74-1.21,2.03-1.88,3.35-1.88.7,0,1.41.18,2.05.58,1.85,1.13,2.43,3.54,1.3,5.39l-9.83,16.08Z"/>
      <path class="cls-6" d="M93.2,118.08l-1.04-1.41-1.42,1.05-.12,2.27c-4.41,3.8-4.28,3.73-34.44,26.49-3.25,2.45-2.28,9.62-.99,13.49-3.73,5.52-3.78,13.01.41,18.66l6.68-4.95c-2.28-4.83-1.99-10.55.74-15.13,8.43-1.77,13.58-11.1,11.72-19.2l22.52-16.69-3.64-4.91-.42.31ZM69.26,154.6c-1.66,1.46-3.7,2.56-5.74,3.18.83-1.24,1.85-2.37,3-3.33.49.27,1,.52,1.52.73,0-.05.58-.52.57-.58-.47-.23-.95-.45-1.4-.71,1.47-1.1,3.16-1.98,4.89-2.49-.78,1.17-1.74,2.24-2.85,3.19Z"/>
    </g>
  </g>
</svg>