<?xml version="1.0" encoding="UTF-8"?>
<svg id="Layer_2" data-name="Layer 2" xmlns="http://www.w3.org/2000/svg" width="231.61" height="231.61" viewBox="0 0 231.61 231.61">
  <defs>
    <style>
      .cls-1 {
        fill: #fff;
      }

      .cls-2 {
        fill: #d1394f;
      }

      .cls-3 {
        fill: #659780;
      }

      .cls-4 {
        isolation: isolate;
      }

      .cls-5 {
        fill: #dedc4a;
      }

      .cls-6 {
        fill: #fef3e1;
      }
    </style>
  </defs>
  <g id="Layer_1-2" data-name="Layer 1">
    <g>
      <g>
        <g>
          <path class="cls-5" d="M115.81.5v115.3L71.94,9.17c6.94-2.85,14.14-5.03,21.51-6.48,4.42-.87,8.88-1.49,13.36-1.84,2.99-.23,5.99-.35,9-.35Z"/>
          <path class="cls-1" d="M115.34,116L71.29,8.9l.46-.19c6.99-2.87,14.25-5.06,21.6-6.51,4.44-.88,8.95-1.5,13.42-1.85,3.06-.24,6.1-.35,9.03-.35h.5v115.8l-.96.19ZM72.59,9.44l42.71,103.83V1c-2.75.01-5.59.13-8.46.35-4.43.35-8.9.96-13.3,1.83-7.12,1.4-14.17,3.51-20.96,6.26Z"/>
        </g>
        <g>
          <path class="cls-2" d="M115.8,115.81V.5c63.68,0,115.3,51.62,115.3,115.3s-51.62,115.3-115.3,115.3S.5,179.49.5,115.81c0-23.04,6.91-45.56,19.82-64.64l95.48,64.64h0"/>
          <path class="cls-1" d="M115.8,231.61C51.95,231.61,0,179.66,0,115.81c0-23.23,6.88-45.68,19.91-64.92l.28-.41,95.11,64.4V0h.5C179.66,0,231.61,51.95,231.61,115.81s-51.95,115.8-115.8,115.8ZM20.46,51.86C7.73,70.84,1,92.94,1,115.81c0,63.3,51.5,114.8,114.8,114.8s114.8-51.5,114.8-114.8S179.38,1.27,116.3,1v115.75L20.46,51.86Z"/>
        </g>
        <g>
          <path class="cls-3" d="M115.8,115.81L20.32,51.16c8.44-12.46,19.23-23.14,31.77-31.46,6.26-4.15,12.9-7.67,19.84-10.53l43.87,106.64Z"/>
          <path class="cls-1" d="M116.9,117.16L19.63,51.29l.28-.41c8.51-12.56,19.25-23.2,31.91-31.6,6.26-4.15,12.96-7.7,19.93-10.57l.46-.19.19.46,44.5,108.17ZM21.02,51.03l93.69,63.44L71.66,9.83c-6.74,2.81-13.23,6.27-19.29,10.29-12.41,8.24-22.96,18.63-31.35,30.91Z"/>
        </g>
        <g class="cls-4">
          <path class="cls-1" d="M155.65,130.88c-.55-.2-.95-.49-1.21-.86-.26-.37-.4-.81-.4-1.33,0-.78.28-1.44.84-1.97s1.31-.8,2.24-.8,1.69.27,2.26.82c.57.54.86,1.21.86,1.99,0,.5-.13.93-.39,1.3-.26.37-.66.65-1.19.85.66.21,1.16.56,1.5,1.04.34.48.52,1.05.52,1.71,0,.92-.32,1.69-.97,2.31s-1.5.94-2.56.94-1.91-.31-2.56-.94-.97-1.41-.97-2.34c0-.7.18-1.28.53-1.75.35-.47.86-.79,1.51-.96ZM154.96,133.6c0,.38.09.74.27,1.09.18.35.44.62.79.82.35.19.73.29,1.13.29.63,0,1.15-.2,1.56-.61.41-.4.61-.92.61-1.54s-.21-1.16-.63-1.57c-.42-.41-.95-.62-1.58-.62s-1.13.21-1.54.61-.61.92-.61,1.54ZM155.38,128.65c0,.51.16.92.49,1.24.33.32.75.48,1.27.48s.92-.16,1.25-.48c.32-.32.49-.71.49-1.17s-.17-.89-.5-1.22c-.33-.33-.75-.49-1.25-.49s-.92.16-1.25.48c-.33.32-.5.71-.5,1.16Z"/>
          <path class="cls-1" d="M166.17,136.69v-2.57h-4.65v-1.21l4.89-6.95h1.08v6.95h1.45v1.21h-1.45v2.57h-1.32ZM166.17,132.92v-4.83l-3.36,4.83h3.36Z"/>
          <path class="cls-1" d="M171.02,136.69v-1.5h1.5v1.5h-1.5Z"/>
          <path class="cls-1" d="M174.44,133.89l1.38-.12c.1.67.34,1.18.71,1.52s.82.51,1.35.51c.63,0,1.17-.24,1.61-.72s.66-1.11.66-1.9-.21-1.34-.63-1.78c-.42-.43-.97-.65-1.66-.65-.42,0-.81.1-1.15.29-.34.19-.61.44-.8.75l-1.24-.16,1.04-5.51h5.33v1.26h-4.28l-.58,2.88c.64-.45,1.32-.67,2.03-.67.94,0,1.73.33,2.37.97.64.65.96,1.48.96,2.5s-.28,1.81-.85,2.52c-.69.87-1.63,1.3-2.82,1.3-.97,0-1.77-.27-2.39-.82-.62-.55-.97-1.27-1.06-2.17Z"/>
          <path class="cls-1" d="M183.02,128.55c0-.77.19-1.42.58-1.95.38-.54.94-.8,1.67-.8.67,0,1.23.24,1.67.72.44.48.66,1.19.66,2.12s-.22,1.6-.67,2.09-1,.73-1.65.73-1.19-.24-1.62-.72-.65-1.21-.65-2.19ZM185.31,126.7c-.33,0-.6.14-.82.42s-.33.8-.33,1.56c0,.69.11,1.17.33,1.45.22.28.49.42.81.42s.61-.14.82-.42c.22-.28.33-.8.33-1.55,0-.69-.11-1.18-.33-1.46-.22-.28-.49-.42-.82-.42ZM185.31,137.09l5.87-11.3h1.07l-5.84,11.3h-1.09ZM189.95,134.18c0-.77.19-1.42.58-1.96.39-.53.95-.8,1.68-.8.67,0,1.23.24,1.67.72.44.48.66,1.19.66,2.12s-.22,1.61-.67,2.1c-.45.49-1,.73-1.66.73s-1.19-.24-1.62-.73c-.43-.48-.65-1.21-.65-2.18ZM192.25,132.33c-.33,0-.61.14-.82.42-.22.28-.33.8-.33,1.56,0,.68.11,1.17.33,1.45.22.28.49.42.81.42s.61-.14.83-.42c.22-.28.33-.8.33-1.55,0-.69-.11-1.18-.33-1.46s-.49-.42-.82-.42Z"/>
        </g>
        <g class="cls-4">
          <path class="cls-1" d="M48.68,38.29l-1.31.1c-.12-.52-.28-.89-.5-1.13-.36-.38-.79-.56-1.32-.56-.42,0-.79.12-1.1.35-.41.3-.74.74-.98,1.32-.24.58-.36,1.41-.37,2.48.32-.48.7-.84,1.16-1.08.46-.23.94-.35,1.44-.35.88,0,1.62.32,2.24.97.62.65.92,1.48.92,2.5,0,.67-.14,1.3-.43,1.88-.29.58-.69,1.02-1.2,1.33-.51.31-1.08.46-1.73.46-1.1,0-1.99-.4-2.68-1.21s-1.04-2.14-1.04-3.99c0-2.07.38-3.58,1.15-4.52.67-.82,1.57-1.23,2.7-1.23.84,0,1.54.24,2.07.71.54.47.86,1.13.97,1.96ZM43.31,42.91c0,.45.1.89.29,1.3.19.41.46.73.81.95.35.22.71.33,1.09.33.56,0,1.03-.22,1.43-.67.4-.45.6-1.06.6-1.83s-.2-1.33-.59-1.75c-.4-.43-.89-.64-1.49-.64s-1.1.21-1.51.64c-.41.43-.62.99-.62,1.68Z"/>
          <path class="cls-1" d="M50.92,46.38v-1.5h1.5v1.5h-1.5Z"/>
          <path class="cls-1" d="M61.26,45.12v1.26h-7.09c0-.32.04-.62.15-.91.18-.48.47-.96.87-1.43s.97-1.01,1.72-1.62c1.17-.96,1.95-1.71,2.36-2.27.41-.56.61-1.09.61-1.58,0-.52-.19-.96-.56-1.32-.37-.36-.86-.54-1.46-.54-.63,0-1.14.19-1.52.57s-.57.91-.58,1.58l-1.35-.14c.09-1.01.44-1.78,1.05-2.31s1.42-.79,2.43-.79,1.84.29,2.44.86c.6.57.9,1.28.9,2.12,0,.43-.09.85-.26,1.27-.18.41-.47.85-.87,1.31s-1.08,1.09-2.03,1.89c-.79.66-1.3,1.11-1.52,1.35-.22.24-.41.47-.56.71h5.26Z"/>
          <path class="cls-1" d="M62.92,38.24c0-.77.19-1.42.58-1.95.38-.54.94-.8,1.67-.8.67,0,1.23.24,1.67.72.44.48.66,1.19.66,2.12s-.22,1.6-.67,2.09-1,.73-1.65.73-1.19-.24-1.62-.72-.65-1.21-.65-2.19ZM65.21,36.39c-.33,0-.6.14-.82.42s-.33.8-.33,1.56c0,.69.11,1.17.33,1.45.22.28.49.42.81.42s.61-.14.82-.42c.22-.28.33-.8.33-1.55,0-.69-.11-1.18-.33-1.46-.22-.28-.49-.42-.82-.42ZM65.22,46.78l5.87-11.3h1.07l-5.84,11.3h-1.09ZM69.86,43.87c0-.77.19-1.42.58-1.96.39-.53.95-.8,1.68-.8.67,0,1.23.24,1.67.72.44.48.66,1.19.66,2.12s-.22,1.61-.67,2.1c-.45.49-1,.73-1.66.73s-1.19-.24-1.62-.73c-.43-.48-.65-1.21-.65-2.18ZM72.15,42.02c-.33,0-.61.14-.82.42-.22.28-.33.8-.33,1.56,0,.68.11,1.17.33,1.45.22.28.49.42.81.42s.61-.14.83-.42c.22-.28.33-.8.33-1.55,0-.69-.11-1.18-.33-1.46s-.49-.42-.82-.42Z"/>
        </g>
      </g>
      <path class="cls-6" d="M134.17,143.13l-1.04-1.41-1.42,1.05-.12,2.27c-4.41,3.8-4.28,3.73-34.44,26.49-3.25,2.45-2.28,9.62-.99,13.49-3.73,5.52-3.78,13.01.41,18.66l6.68-4.95c-2.28-4.83-1.99-10.55.74-15.13,8.43-1.77,13.58-11.1,11.72-19.2l22.52-16.69-3.64-4.91-.42.31ZM110.22,179.64c-1.66,1.46-3.7,2.56-5.74,3.18.83-1.24,1.85-2.37,3-3.33.49.27,1,.52,1.52.73,0-.05.58-.52.57-.58-.47-.23-.95-.45-1.4-.71,1.47-1.1,3.16-1.98,4.89-2.49-.78,1.17-1.74,2.24-2.85,3.19Z"/>
    </g>
  </g>
</svg>