<?xml version="1.0" encoding="UTF-8"?>
<svg id="Layer_2" data-name="Layer 2" xmlns="http://www.w3.org/2000/svg" width="231.61" height="231.59" viewBox="0 0 231.61 231.59">
  <defs>
    <style>
      .cls-1 {
        fill: #723d57;
      }

      .cls-2 {
        fill: #fff;
      }

      .cls-3 {
        fill: #d1394f;
      }

      .cls-4 {
        fill: #659780;
      }

      .cls-5 {
        isolation: isolate;
      }

      .cls-6 {
        fill: #00bfe2;
      }

      .cls-7 {
        fill: #eb6224;
      }
    </style>
  </defs>
  <g id="Layer_1-2" data-name="Layer 1">
    <g>
      <g>
        <path class="cls-3" d="M115.8,115.8l20.84,113.41c-40.17,7.38-81.24-7.03-107.98-37.9l87.14-75.51h0"/>
        <path class="cls-2" d="M115.99,231.59c-33.26,0-65.57-14.39-87.71-39.95l-.33-.38.38-.33,87.8-76.08,21.09,114.76-.49.09c-6.9,1.27-13.84,1.89-20.74,1.89ZM29.37,191.36c26.41,30.21,67.2,44.52,106.69,37.45l-20.59-112.05L29.37,191.36Z"/>
      </g>
      <g>
        <path class="cls-7" d="M115.8,115.8V.5c63.68,0,115.3,51.62,115.3,115.3,0,55.64-39.74,103.35-94.46,113.41l-20.84-113.41h0"/>
        <path class="cls-2" d="M136.24,229.79l-.09-.49-20.85-113.5V0h.5c63.85,0,115.8,51.95,115.8,115.8,0,55.89-39.9,103.79-94.87,113.9l-.49.09ZM116.3,115.76l20.74,112.87c54.25-10.21,93.56-57.58,93.56-112.82C230.61,52.67,179.38,1.27,116.3,1v114.76Z"/>
      </g>
      <g>
        <path class="cls-1" d="M115.8,115.8L28.66,191.31C7.44,166.83-2.5,134.54,1.28,102.36l114.52,13.44h0"/>
        <path class="cls-2" d="M28.61,192.02l-.33-.38C7.02,167.11-3,134.55.78,102.3l.06-.5.5.06,115.65,13.57-.86.74L28.61,192.02ZM1.72,102.92c-3.57,31.63,6.25,63.54,26.99,87.69l85.91-74.44L1.72,102.92Z"/>
      </g>
      <g>
        <path class="cls-4" d="M115.8,115.8L48.51,22.17C68.12,8.08,91.65.5,115.8.5v115.3h0"/>
        <path class="cls-2" d="M116.3,117.36L47.81,22.06l.41-.29C68.03,7.53,91.4,0,115.8,0h.5v117.36ZM49.21,22.29l66.09,91.97V1c-23.84.1-46.67,7.45-66.09,21.28Z"/>
      </g>
      <g>
        <path class="cls-6" d="M115.8,115.8L1.28,102.36c3.78-32.18,20.92-61.28,47.23-80.19l67.29,93.63h0"/>
        <path class="cls-2" d="M116.87,116.43L.73,102.8l.06-.5c3.79-32.24,21.07-61.6,47.43-80.54l.41-.29,68.24,94.96ZM1.84,101.92l112.9,13.25L48.4,22.87C22.63,41.56,5.69,70.32,1.84,101.92Z"/>
      </g>
      <g class="cls-5">
        <path class="cls-2" d="M177.35,107.79v-2.57h-4.65v-1.21l4.89-6.95h1.08v6.95h1.45v1.21h-1.45v2.57h-1.32ZM177.35,104.01v-4.83l-3.36,4.83h3.36Z"/>
        <path class="cls-2" d="M181.55,98.47v-1.26h6.94v1.02c-.68.73-1.36,1.69-2.03,2.9-.67,1.2-1.19,2.44-1.55,3.71-.26.9-.43,1.88-.5,2.95h-1.35c.01-.84.18-1.86.5-3.06.32-1.19.77-2.35,1.36-3.46.59-1.11,1.22-2.04,1.89-2.8h-5.25Z"/>
        <path class="cls-2" d="M190.53,107.79v-1.5h1.5v1.5h-1.5Z"/>
        <path class="cls-2" d="M198.91,107.79h-1.32v-8.39c-.32.3-.73.6-1.25.91-.51.3-.98.53-1.39.68v-1.27c.74-.35,1.38-.77,1.93-1.26s.94-.97,1.17-1.43h.85v10.76Z"/>
        <path class="cls-2" d="M202.53,99.64c0-.77.19-1.42.58-1.95.38-.54.94-.8,1.67-.8.67,0,1.23.24,1.67.72.44.48.66,1.19.66,2.12s-.22,1.6-.67,2.09-1,.73-1.65.73-1.19-.24-1.62-.72-.65-1.21-.65-2.19ZM204.82,97.79c-.33,0-.6.14-.82.42s-.33.8-.33,1.56c0,.69.11,1.17.33,1.45.22.28.49.42.81.42s.61-.14.82-.42c.22-.28.33-.8.33-1.55,0-.69-.11-1.18-.33-1.46-.22-.28-.49-.42-.82-.42ZM204.83,108.18l5.87-11.3h1.07l-5.84,11.3h-1.09ZM209.46,105.27c0-.77.19-1.42.58-1.96.39-.53.95-.8,1.68-.8.67,0,1.23.24,1.67.72.44.48.66,1.19.66,2.12s-.22,1.61-.67,2.1c-.45.49-1,.73-1.66.73s-1.19-.24-1.62-.73c-.43-.48-.65-1.21-.65-2.18ZM211.76,103.42c-.33,0-.61.14-.82.42-.22.28-.33.8-.33,1.56,0,.68.11,1.17.33,1.45.22.28.49.42.81.42s.61-.14.83-.42c.22-.28.33-.8.33-1.55,0-.69-.11-1.18-.33-1.46s-.49-.42-.82-.42Z"/>
      </g>
      <g class="cls-5">
        <path class="cls-2" d="M75.26,27.42l1.26-.12c.11.59.31,1.03.61,1.29.3.27.69.4,1.16.4.4,0,.76-.09,1.06-.28.3-.18.55-.43.75-.74.19-.31.36-.73.49-1.25.13-.53.2-1.06.2-1.61,0-.06,0-.15,0-.26-.26.42-.62.76-1.08,1.02-.46.26-.95.39-1.48.39-.89,0-1.64-.32-2.25-.96s-.92-1.49-.92-2.54.32-1.96.96-2.62c.64-.66,1.44-1,2.41-1,.7,0,1.33.19,1.91.56.58.38,1.02.91,1.32,1.61.3.69.45,1.7.45,3.02s-.15,2.46-.45,3.27c-.3.81-.74,1.43-1.33,1.85-.59.42-1.28.64-2.07.64-.84,0-1.52-.23-2.05-.7-.53-.47-.85-1.12-.96-1.96ZM80.65,22.69c0-.76-.2-1.36-.6-1.8-.4-.44-.89-.67-1.45-.67s-1.09.24-1.53.72c-.43.48-.65,1.1-.65,1.86,0,.68.21,1.24.62,1.66.41.43.92.64,1.52.64s1.11-.21,1.5-.64c.39-.43.59-1.02.59-1.77Z"/>
        <path class="cls-2" d="M84.13,29.9v-1.5h1.5v1.5h-1.5Z"/>
        <path class="cls-2" d="M87.75,27.42l1.26-.12c.11.59.31,1.03.61,1.29.3.27.69.4,1.16.4.4,0,.76-.09,1.06-.28.3-.18.55-.43.75-.74.19-.31.36-.73.49-1.25.13-.53.2-1.06.2-1.61,0-.06,0-.15,0-.26-.26.42-.62.76-1.08,1.02-.46.26-.95.39-1.48.39-.89,0-1.64-.32-2.25-.96s-.92-1.49-.92-2.54.32-1.96.96-2.62c.64-.66,1.44-1,2.41-1,.7,0,1.33.19,1.91.56.58.38,1.02.91,1.32,1.61.3.69.45,1.7.45,3.02s-.15,2.46-.45,3.27c-.3.81-.74,1.43-1.33,1.85-.59.42-1.28.64-2.07.64-.84,0-1.52-.23-2.05-.7-.53-.47-.85-1.12-.96-1.96ZM93.14,22.69c0-.76-.2-1.36-.6-1.8-.4-.44-.89-.67-1.45-.67s-1.09.24-1.53.72c-.43.48-.65,1.1-.65,1.86,0,.68.21,1.24.62,1.66.41.43.92.64,1.52.64s1.11-.21,1.5-.64c.39-.43.59-1.02.59-1.77Z"/>
        <path class="cls-2" d="M96.13,21.75c0-.77.19-1.42.58-1.95.38-.54.94-.8,1.67-.8.67,0,1.23.24,1.67.72.44.48.66,1.19.66,2.12s-.22,1.6-.67,2.09-1,.73-1.65.73-1.19-.24-1.62-.72-.65-1.21-.65-2.19ZM98.42,19.9c-.33,0-.6.14-.82.42s-.33.8-.33,1.56c0,.69.11,1.17.33,1.45.22.28.49.42.81.42s.61-.14.82-.42c.22-.28.33-.8.33-1.55,0-.69-.11-1.18-.33-1.46-.22-.28-.49-.42-.82-.42ZM98.43,30.29l5.87-11.3h1.07l-5.84,11.3h-1.09ZM103.07,27.38c0-.77.19-1.42.58-1.96.39-.53.95-.8,1.68-.8.67,0,1.23.24,1.67.72.44.48.66,1.19.66,2.12s-.22,1.61-.67,2.1c-.45.49-1,.73-1.66.73s-1.19-.24-1.62-.73c-.43-.48-.65-1.21-.65-2.18ZM105.36,25.53c-.33,0-.61.14-.82.42-.22.28-.33.8-.33,1.56,0,.68.11,1.17.33,1.45.22.28.49.42.81.42s.61-.14.83-.42c.22-.28.33-.8.33-1.55,0-.69-.11-1.18-.33-1.46s-.49-.42-.82-.42Z"/>
      </g>
      <g class="cls-5">
        <path class="cls-2" d="M28.38,71.37h-1.32v-8.39c-.32.3-.73.6-1.25.91-.51.3-.98.53-1.39.68v-1.27c.74-.35,1.38-.77,1.93-1.26s.94-.97,1.17-1.43h.85v10.76Z"/>
        <path class="cls-2" d="M31.76,68.54l1.32-.18c.15.75.41,1.28.77,1.61.36.33.81.49,1.33.49.62,0,1.14-.21,1.57-.64s.64-.96.64-1.59-.2-1.1-.59-1.5-.9-.59-1.51-.59c-.25,0-.56.05-.93.15l.15-1.16c.09,0,.16.01.21.01.56,0,1.07-.15,1.51-.44.45-.29.67-.74.67-1.35,0-.48-.16-.88-.49-1.2-.33-.32-.75-.47-1.26-.47s-.94.16-1.28.48c-.34.32-.56.8-.66,1.45l-1.32-.23c.16-.88.53-1.57,1.1-2.05.57-.48,1.28-.73,2.13-.73.58,0,1.12.13,1.62.38s.87.59,1.13,1.03.39.89.39,1.38-.12.88-.37,1.27c-.25.38-.62.68-1.1.91.63.15,1.13.45,1.48.91.35.46.53,1.04.53,1.73,0,.94-.34,1.73-1.02,2.38s-1.54.98-2.59.98c-.94,0-1.72-.28-2.34-.84-.62-.56-.98-1.29-1.06-2.18Z"/>
        <path class="cls-2" d="M40.82,71.37v-1.5h1.5v1.5h-1.5Z"/>
        <path class="cls-2" d="M51.16,70.11v1.26h-7.09c0-.32.04-.62.15-.91.18-.48.47-.96.87-1.43s.97-1.01,1.72-1.62c1.17-.96,1.95-1.71,2.36-2.27.41-.56.61-1.09.61-1.58,0-.52-.19-.96-.56-1.32-.37-.36-.86-.54-1.46-.54-.63,0-1.14.19-1.52.57s-.57.91-.58,1.58l-1.35-.14c.09-1.01.44-1.78,1.05-2.31s1.42-.79,2.43-.79,1.84.29,2.44.86c.6.57.9,1.28.9,2.12,0,.43-.09.85-.26,1.27-.18.41-.47.85-.87,1.31s-1.08,1.09-2.03,1.89c-.79.66-1.3,1.11-1.52,1.35-.22.24-.41.47-.56.71h5.26Z"/>
        <path class="cls-2" d="M52.82,63.23c0-.77.19-1.42.58-1.95.38-.54.94-.8,1.67-.8.67,0,1.23.24,1.67.72.44.48.66,1.19.66,2.12s-.22,1.6-.67,2.09-1,.73-1.65.73-1.19-.24-1.62-.72-.65-1.21-.65-2.19ZM55.11,61.38c-.33,0-.6.14-.82.42s-.33.8-.33,1.56c0,.69.11,1.17.33,1.45.22.28.49.42.81.42s.61-.14.82-.42c.22-.28.33-.8.33-1.55,0-.69-.11-1.18-.33-1.46-.22-.28-.49-.42-.82-.42ZM55.12,71.77l5.87-11.3h1.07l-5.84,11.3h-1.09ZM59.76,68.86c0-.77.19-1.42.58-1.96.39-.53.95-.8,1.68-.8.67,0,1.23.24,1.67.72.44.48.66,1.19.66,2.12s-.22,1.61-.67,2.1c-.45.49-1,.73-1.66.73s-1.19-.24-1.62-.73c-.43-.48-.65-1.21-.65-2.18ZM62.05,67.01c-.33,0-.61.14-.82.42-.22.28-.33.8-.33,1.56,0,.68.11,1.17.33,1.45.22.28.49.42.81.42s.61-.14.83-.42c.22-.28.33-.8.33-1.55,0-.69-.11-1.18-.33-1.46s-.49-.42-.82-.42Z"/>
      </g>
      <g class="cls-5">
        <path class="cls-2" d="M19.76,146.37h-1.32v-8.39c-.32.3-.73.6-1.25.91-.51.3-.98.53-1.39.68v-1.27c.74-.35,1.38-.77,1.93-1.26s.94-.97,1.17-1.43h.85v10.76Z"/>
        <path class="cls-2" d="M23.14,143.54l1.32-.18c.15.75.41,1.28.77,1.61.36.33.81.49,1.33.49.62,0,1.14-.21,1.57-.64s.64-.96.64-1.59-.2-1.1-.59-1.5-.9-.59-1.51-.59c-.25,0-.56.05-.93.15l.15-1.16c.09,0,.16.01.21.01.56,0,1.07-.15,1.51-.44.45-.29.67-.74.67-1.35,0-.48-.16-.88-.49-1.2-.33-.32-.75-.47-1.26-.47s-.94.16-1.28.48c-.34.32-.56.8-.66,1.45l-1.32-.23c.16-.88.53-1.57,1.1-2.05.57-.48,1.28-.73,2.13-.73.58,0,1.12.13,1.62.38s.87.59,1.13,1.03.39.89.39,1.38-.12.88-.37,1.27c-.25.38-.62.68-1.1.91.63.15,1.13.45,1.48.91.35.46.53,1.04.53,1.73,0,.94-.34,1.73-1.02,2.38s-1.54.98-2.59.98c-.94,0-1.72-.28-2.34-.84-.62-.56-.98-1.29-1.06-2.18Z"/>
        <path class="cls-2" d="M32.2,146.37v-1.5h1.5v1.5h-1.5Z"/>
        <path class="cls-2" d="M42.54,145.1v1.26h-7.09c0-.32.04-.62.15-.91.18-.48.47-.96.87-1.43s.97-1.01,1.72-1.62c1.17-.96,1.95-1.71,2.36-2.27.41-.56.61-1.09.61-1.58,0-.52-.19-.96-.56-1.32-.37-.36-.86-.54-1.46-.54-.63,0-1.14.19-1.52.57s-.57.91-.58,1.58l-1.35-.14c.09-1.01.44-1.78,1.05-2.31s1.42-.79,2.43-.79,1.84.29,2.44.86c.6.57.9,1.28.9,2.12,0,.43-.09.85-.26,1.27-.18.41-.47.85-.87,1.31s-1.08,1.09-2.03,1.89c-.79.66-1.3,1.11-1.52,1.35-.22.24-.41.47-.56.71h5.26Z"/>
        <path class="cls-2" d="M44.2,138.22c0-.77.19-1.42.58-1.95.38-.54.94-.8,1.67-.8.67,0,1.23.24,1.67.72.44.48.66,1.19.66,2.12s-.22,1.6-.67,2.09-1,.73-1.65.73-1.19-.24-1.62-.72-.65-1.21-.65-2.19ZM46.49,136.37c-.33,0-.6.14-.82.42s-.33.8-.33,1.56c0,.69.11,1.17.33,1.45.22.28.49.42.81.42s.61-.14.82-.42c.22-.28.33-.8.33-1.55,0-.69-.11-1.18-.33-1.46-.22-.28-.49-.42-.82-.42ZM46.5,146.76l5.87-11.3h1.07l-5.84,11.3h-1.09ZM51.13,143.85c0-.77.19-1.42.58-1.96.39-.53.95-.8,1.68-.8.67,0,1.23.24,1.67.72.44.48.66,1.19.66,2.12s-.22,1.61-.67,2.1c-.45.49-1,.73-1.66.73s-1.19-.24-1.62-.73c-.43-.48-.65-1.21-.65-2.18ZM53.43,142c-.33,0-.61.14-.82.42-.22.28-.33.8-.33,1.56,0,.68.11,1.17.33,1.45.22.28.49.42.81.42s.61-.14.83-.42c.22-.28.33-.8.33-1.55,0-.69-.11-1.18-.33-1.46s-.49-.42-.82-.42Z"/>
      </g>
      <g class="cls-5">
        <path class="cls-2" d="M76.68,211.15h-1.32v-8.39c-.32.3-.73.6-1.25.91-.51.3-.98.53-1.39.68v-1.27c.74-.35,1.38-.77,1.93-1.26s.94-.97,1.17-1.43h.85v10.76Z"/>
        <path class="cls-2" d="M86.88,203.06l-1.31.1c-.12-.52-.28-.89-.5-1.13-.36-.38-.79-.56-1.32-.56-.42,0-.79.12-1.1.35-.41.3-.74.74-.98,1.32-.24.58-.36,1.41-.37,2.48.32-.48.7-.84,1.16-1.08.46-.23.94-.35,1.44-.35.88,0,1.62.32,2.24.97.62.65.92,1.48.92,2.5,0,.67-.14,1.3-.43,1.88-.29.58-.69,1.02-1.2,1.33-.51.31-1.08.46-1.73.46-1.1,0-1.99-.4-2.68-1.21s-1.04-2.14-1.04-3.99c0-2.07.38-3.58,1.15-4.52.67-.82,1.57-1.23,2.7-1.23.84,0,1.54.24,2.07.71.54.47.86,1.13.97,1.96ZM81.5,207.68c0,.45.1.89.29,1.3.19.41.46.73.81.95.35.22.71.33,1.09.33.56,0,1.03-.22,1.43-.67.4-.45.6-1.06.6-1.83s-.2-1.33-.59-1.75c-.4-.43-.89-.64-1.49-.64s-1.1.21-1.51.64c-.41.43-.62.99-.62,1.68Z"/>
        <path class="cls-2" d="M89.12,211.15v-1.5h1.5v1.5h-1.5Z"/>
        <path class="cls-2" d="M92.54,208.34l1.38-.12c.1.67.34,1.18.71,1.52s.82.51,1.35.51c.63,0,1.17-.24,1.61-.72s.66-1.11.66-1.9-.21-1.34-.63-1.78c-.42-.43-.97-.65-1.66-.65-.42,0-.81.1-1.15.29-.34.19-.61.44-.8.75l-1.24-.16,1.04-5.51h5.33v1.26h-4.28l-.58,2.88c.64-.45,1.32-.67,2.03-.67.94,0,1.73.33,2.37.97.64.65.96,1.48.96,2.5s-.28,1.81-.85,2.52c-.69.87-1.63,1.3-2.82,1.3-.97,0-1.77-.27-2.39-.82-.62-.55-.97-1.27-1.06-2.17Z"/>
        <path class="cls-2" d="M101.12,203c0-.77.19-1.42.58-1.95.38-.54.94-.8,1.67-.8.67,0,1.23.24,1.67.72.44.48.66,1.19.66,2.12s-.22,1.6-.67,2.09-1,.73-1.65.73-1.19-.24-1.62-.72-.65-1.21-.65-2.19ZM103.4,201.15c-.33,0-.6.14-.82.42s-.33.8-.33,1.56c0,.69.11,1.17.33,1.45.22.28.49.42.81.42s.61-.14.82-.42c.22-.28.33-.8.33-1.55,0-.69-.11-1.18-.33-1.46-.22-.28-.49-.42-.82-.42ZM103.41,211.54l5.87-11.3h1.07l-5.84,11.3h-1.09ZM108.05,208.63c0-.77.19-1.42.58-1.96.39-.53.95-.8,1.68-.8.67,0,1.23.24,1.67.72.44.48.66,1.19.66,2.12s-.22,1.61-.67,2.1c-.45.49-1,.73-1.66.73s-1.19-.24-1.62-.73c-.43-.48-.65-1.21-.65-2.18ZM110.34,206.79c-.33,0-.61.14-.82.42-.22.28-.33.8-.33,1.56,0,.68.11,1.17.33,1.45.22.28.49.42.81.42s.61-.14.83-.42c.22-.28.33-.8.33-1.55,0-.69-.11-1.18-.33-1.46s-.49-.42-.82-.42Z"/>
      </g>
    </g>
  </g>
</svg>