<?xml version="1.0" encoding="UTF-8"?>
<svg id="Layer_2" data-name="Layer 2" xmlns="http://www.w3.org/2000/svg" width="231.61" height="231.61" viewBox="0 0 231.61 231.61">
  <defs>
    <style>
      .cls-1 {
        fill: #69569a;
      }

      .cls-2 {
        fill: #723d57;
      }

      .cls-3 {
        fill: #fff;
      }

      .cls-4 {
        fill: #d1394f;
      }

      .cls-5 {
        isolation: isolate;
      }

      .cls-6 {
        fill: #00bfe2;
      }

      .cls-7 {
        fill: #eb6224;
      }
    </style>
  </defs>
  <g id="Layer_1-2" data-name="Layer 1">
    <g>
      <g>
        <path class="cls-4" d="M115.8,115.81L72.16,9.08C86.02,3.41,100.84.5,115.8.5v115.3h0"/>
        <path class="cls-3" d="M115.34,115.99L71.51,8.8l.46-.19C85.96,2.9,100.7,0,115.8,0h.5v115.8l-.96.19ZM72.82,9.35l42.49,103.91V1c-14.63.06-28.92,2.87-42.49,8.35Z"/>
      </g>
      <g>
        <path class="cls-7" d="M115.8,115.81V.5c63.68,0,115.3,51.62,115.3,115.31,0,63.14-50.78,114.53-113.91,115.3l-1.4-115.3h0"/>
        <path class="cls-3" d="M116.71,231.61l-1.4-115.8V0h.5c63.85,0,115.8,51.95,115.8,115.81,0,30.67-11.87,59.57-33.42,81.39-21.55,21.82-50.31,34.04-80.98,34.41h-.5ZM116.3,115.8l1.39,114.79c62.3-1.03,112.91-52.42,112.91-114.79S179.38,1.27,116.3,1v114.8Z"/>
      </g>
      <g>
        <path class="cls-2" d="M115.8,115.81L3.39,141.46c-7.37-32.3-.49-66.22,18.88-93.09l93.53,67.43h0"/>
        <path class="cls-3" d="M3.01,142.06l-.11-.49c-7.4-32.43-.49-66.51,18.97-93.5l.29-.41.41.29,94.43,68.08L3.01,142.06ZM22.39,49.07C3.42,75.62-3.36,109.02,3.77,140.86l110.85-25.3L22.39,49.07Z"/>
      </g>
      <g>
        <path class="cls-1" d="M115.8,115.81L22.27,48.37c12.62-17.51,29.91-31.12,49.89-39.29l43.64,106.73h0"/>
        <path class="cls-3" d="M116.93,117.23l-1.42-1.02L21.58,48.48l.29-.41c12.69-17.6,30.02-31.25,50.11-39.46l.46-.19,44.49,108.81ZM22.97,48.26l91.71,66.12L71.89,9.73c-19.56,8.1-36.46,21.41-48.92,38.53Z"/>
      </g>
      <g>
        <path class="cls-6" d="M115.8,115.81l1.4,115.3c-54.32.66-101.73-36.68-113.81-89.64l112.41-25.66h0"/>
        <path class="cls-3" d="M115.82,231.61c-25.91,0-51.31-8.79-71.67-24.83-20.73-16.33-35.38-39.48-41.25-65.21l-.11-.49,113.5-25.91v.62s1.41,115.8,1.41,115.8h-.5c-.46.01-.92.01-1.39.01ZM3.99,141.84c12.03,51.66,58.85,88.77,111.83,88.77.29,0,.58,0,.88,0l-1.38-114.18L3.99,141.84Z"/>
      </g>
      <g class="cls-5">
        <path class="cls-3" d="M182.27,115.81v-2.57h-4.65v-1.21l4.89-6.95h1.08v6.95h1.45v1.21h-1.45v2.57h-1.32ZM182.27,112.03v-4.83l-3.36,4.83h3.36Z"/>
        <path class="cls-3" d="M186.57,113.33l1.27-.12c.11.59.31,1.03.61,1.29.3.27.69.4,1.16.4.4,0,.76-.09,1.06-.28.3-.18.55-.43.75-.74s.36-.73.49-1.25.2-1.06.2-1.61c0-.06,0-.15,0-.26-.26.42-.62.76-1.08,1.02s-.95.39-1.48.39c-.89,0-1.64-.32-2.25-.96-.62-.64-.92-1.49-.92-2.54s.32-1.96.96-2.62c.64-.66,1.45-1,2.41-1,.7,0,1.33.19,1.91.56s1.02.91,1.32,1.61c.3.69.45,1.7.45,3.02s-.15,2.46-.45,3.27c-.3.81-.74,1.43-1.33,1.85-.59.42-1.28.64-2.06.64-.84,0-1.52-.23-2.05-.7-.53-.47-.85-1.12-.96-1.96ZM191.96,108.6c0-.76-.2-1.36-.6-1.8-.4-.44-.89-.67-1.45-.67s-1.09.24-1.53.72-.65,1.1-.65,1.86c0,.68.21,1.24.62,1.66.41.43.92.64,1.53.64s1.11-.21,1.5-.64c.39-.43.59-1.02.59-1.77Z"/>
        <path class="cls-3" d="M195.45,115.81v-1.5h1.5v1.5h-1.5Z"/>
        <path class="cls-3" d="M200.89,109.99c-.54-.2-.95-.49-1.21-.86-.26-.37-.4-.81-.4-1.33,0-.78.28-1.44.84-1.97s1.31-.8,2.24-.8,1.69.27,2.26.82c.57.54.86,1.21.86,1.99,0,.5-.13.93-.39,1.3-.26.37-.66.65-1.19.85.66.21,1.16.56,1.5,1.04.34.48.52,1.05.52,1.71,0,.92-.32,1.69-.97,2.31s-1.5.94-2.56.94-1.91-.31-2.56-.94-.97-1.41-.97-2.34c0-.7.18-1.28.53-1.75.35-.47.86-.79,1.51-.96ZM200.21,112.71c0,.38.09.74.27,1.09.18.35.44.62.79.82s.73.29,1.13.29c.63,0,1.15-.2,1.56-.61.41-.4.61-.92.61-1.54s-.21-1.16-.63-1.57c-.42-.41-.95-.62-1.58-.62s-1.13.21-1.54.61c-.41.41-.61.92-.61,1.54ZM200.63,107.76c0,.51.16.92.49,1.24.33.32.75.48,1.27.48s.92-.16,1.25-.48.49-.71.49-1.17-.17-.89-.5-1.22c-.33-.33-.75-.49-1.25-.49s-.92.16-1.25.48c-.33.32-.5.71-.5,1.16Z"/>
        <path class="cls-3" d="M207.45,107.66c0-.77.19-1.42.58-1.95.38-.54.94-.8,1.67-.8.67,0,1.23.24,1.67.72.44.48.66,1.19.66,2.12s-.22,1.6-.67,2.09c-.45.49-1,.73-1.65.73s-1.19-.24-1.62-.72-.65-1.21-.65-2.19ZM209.73,105.81c-.33,0-.6.14-.82.42s-.32.8-.32,1.56c0,.69.11,1.17.33,1.45s.49.42.81.42.61-.14.82-.42c.22-.28.33-.8.33-1.55,0-.69-.11-1.18-.33-1.46s-.49-.42-.82-.42ZM209.74,116.2l5.87-11.3h1.07l-5.84,11.3h-1.09ZM214.38,113.29c0-.77.19-1.42.58-1.96s.95-.8,1.68-.8c.67,0,1.23.24,1.67.72.44.48.66,1.19.66,2.12s-.22,1.61-.67,2.1-1,.73-1.66.73-1.19-.24-1.62-.73c-.43-.48-.65-1.21-.65-2.18ZM216.67,111.44c-.33,0-.61.14-.82.42-.22.28-.33.8-.33,1.56,0,.68.11,1.17.33,1.45.22.28.49.42.81.42s.61-.14.83-.42c.22-.28.33-.8.33-1.55,0-.69-.11-1.18-.33-1.46-.22-.28-.49-.42-.82-.42Z"/>
      </g>
      <g class="cls-5">
        <path class="cls-3" d="M17.39,100.29h-1.32v-8.39c-.32.3-.73.6-1.25.91-.51.3-.98.53-1.39.68v-1.27c.74-.35,1.38-.77,1.93-1.26s.94-.97,1.17-1.43h.85v10.76Z"/>
        <path class="cls-3" d="M20.77,97.46l1.32-.18c.15.75.41,1.28.77,1.61.36.33.81.49,1.33.49.62,0,1.14-.21,1.57-.64s.64-.96.64-1.59-.2-1.1-.59-1.5-.9-.59-1.51-.59c-.25,0-.56.05-.93.15l.15-1.16c.09,0,.16.01.21.01.56,0,1.07-.15,1.51-.44.45-.29.67-.74.67-1.35,0-.48-.16-.88-.49-1.2-.33-.32-.75-.47-1.26-.47s-.94.16-1.28.48c-.34.32-.56.8-.66,1.45l-1.32-.23c.16-.88.53-1.57,1.1-2.05.57-.48,1.28-.73,2.13-.73.58,0,1.12.13,1.62.38s.87.59,1.13,1.03.39.89.39,1.38-.12.88-.37,1.27c-.25.38-.62.68-1.1.91.63.15,1.13.45,1.48.91.35.46.53,1.04.53,1.73,0,.94-.34,1.73-1.02,2.38s-1.54.98-2.59.98c-.94,0-1.72-.28-2.34-.84-.62-.56-.98-1.29-1.06-2.18Z"/>
        <path class="cls-3" d="M29.83,100.29v-1.5h1.5v1.5h-1.5Z"/>
        <path class="cls-3" d="M33.25,97.48l1.38-.12c.1.67.34,1.18.71,1.52s.82.51,1.35.51c.63,0,1.17-.24,1.61-.72s.66-1.11.66-1.9-.21-1.34-.63-1.78c-.42-.43-.97-.65-1.66-.65-.42,0-.81.1-1.15.29-.34.19-.61.44-.8.75l-1.24-.16,1.04-5.51h5.33v1.26h-4.28l-.58,2.88c.64-.45,1.32-.67,2.03-.67.94,0,1.73.33,2.37.97.64.65.96,1.48.96,2.5s-.28,1.81-.85,2.52c-.69.87-1.63,1.3-2.82,1.3-.97,0-1.77-.27-2.39-.82-.62-.55-.97-1.27-1.06-2.17Z"/>
        <path class="cls-3" d="M41.83,92.14c0-.77.19-1.42.58-1.95.38-.54.94-.8,1.67-.8.67,0,1.23.24,1.67.72.44.48.66,1.19.66,2.12s-.22,1.6-.67,2.09-1,.73-1.65.73-1.19-.24-1.62-.72-.65-1.21-.65-2.19ZM44.12,90.29c-.33,0-.6.14-.82.42s-.33.8-.33,1.56c0,.69.11,1.17.33,1.45.22.28.49.42.81.42s.61-.14.82-.42c.22-.28.33-.8.33-1.55,0-.69-.11-1.18-.33-1.46-.22-.28-.49-.42-.82-.42ZM44.13,100.68l5.87-11.3h1.07l-5.84,11.3h-1.09ZM48.76,97.77c0-.77.19-1.42.58-1.96.39-.53.95-.8,1.68-.8.67,0,1.23.24,1.67.72.44.48.66,1.19.66,2.12s-.22,1.61-.67,2.1c-.45.49-1,.73-1.66.73s-1.19-.24-1.62-.73c-.43-.48-.65-1.21-.65-2.18ZM51.06,95.92c-.33,0-.61.14-.82.42-.22.28-.33.8-.33,1.56,0,.68.11,1.17.33,1.45.22.28.49.42.81.42s.61-.14.83-.42c.22-.28.33-.8.33-1.55,0-.69-.11-1.18-.33-1.46s-.49-.42-.82-.42Z"/>
      </g>
      <g class="cls-5">
        <path class="cls-3" d="M52.12,192.41v1.26h-7.09c0-.32.04-.62.15-.91.18-.48.47-.96.87-1.43s.97-1.01,1.72-1.62c1.17-.96,1.95-1.71,2.36-2.27.41-.56.61-1.09.61-1.58,0-.52-.19-.96-.56-1.32-.37-.36-.86-.54-1.46-.54-.63,0-1.14.19-1.52.57s-.57.91-.58,1.58l-1.35-.14c.09-1.01.44-1.78,1.05-2.31s1.42-.79,2.43-.79,1.84.29,2.44.86c.6.57.9,1.28.9,2.12,0,.43-.09.85-.26,1.27-.18.41-.47.85-.87,1.31s-1.08,1.09-2.03,1.89c-.79.66-1.3,1.11-1.52,1.35-.22.24-.41.47-.56.71h5.26Z"/>
        <path class="cls-3" d="M58.49,193.67h-1.32v-8.39c-.32.3-.73.6-1.25.91-.51.3-.98.53-1.39.68v-1.27c.74-.35,1.38-.77,1.93-1.26s.94-.97,1.17-1.43h.85v10.76Z"/>
        <path class="cls-3" d="M62.6,193.67v-1.5h1.5v1.5h-1.5Z"/>
        <path class="cls-3" d="M72.85,185.58l-1.31.1c-.12-.52-.28-.89-.5-1.13-.36-.38-.79-.56-1.32-.56-.42,0-.79.12-1.1.35-.41.3-.74.74-.98,1.32-.24.58-.36,1.41-.37,2.48.32-.48.7-.84,1.16-1.08.46-.23.94-.35,1.44-.35.88,0,1.62.32,2.24.97.62.65.92,1.48.92,2.5,0,.67-.14,1.3-.43,1.88-.29.58-.69,1.02-1.2,1.33-.51.31-1.08.46-1.73.46-1.1,0-1.99-.4-2.68-1.21s-1.04-2.14-1.04-3.99c0-2.07.38-3.58,1.15-4.52.67-.82,1.57-1.23,2.7-1.23.84,0,1.54.24,2.07.71.54.47.86,1.13.97,1.96ZM67.48,190.2c0,.45.1.89.29,1.3.19.41.46.73.81.95.35.22.71.33,1.09.33.56,0,1.03-.22,1.43-.67.4-.45.6-1.06.6-1.83s-.2-1.33-.59-1.75c-.4-.43-.89-.64-1.49-.64s-1.1.21-1.51.64c-.41.43-.62.99-.62,1.68Z"/>
        <path class="cls-3" d="M74.6,185.52c0-.77.19-1.42.58-1.95.38-.54.94-.8,1.67-.8.67,0,1.23.24,1.67.72.44.48.66,1.19.66,2.12s-.22,1.6-.67,2.09-1,.73-1.65.73-1.19-.24-1.62-.72-.65-1.21-.65-2.19ZM76.89,183.67c-.33,0-.6.14-.82.42s-.33.8-.33,1.56c0,.69.11,1.17.33,1.45.22.28.49.42.81.42s.61-.14.82-.42c.22-.28.33-.8.33-1.55,0-.69-.11-1.18-.33-1.46-.22-.28-.49-.42-.82-.42ZM76.9,194.06l5.87-11.3h1.07l-5.84,11.3h-1.09ZM81.53,191.15c0-.77.19-1.42.58-1.96.39-.53.95-.8,1.68-.8.67,0,1.23.24,1.67.72.44.48.66,1.19.66,2.12s-.22,1.61-.67,2.1c-.45.49-1,.73-1.66.73s-1.19-.24-1.62-.73c-.43-.48-.65-1.21-.65-2.18ZM83.83,189.3c-.33,0-.61.14-.82.42-.22.28-.33.8-.33,1.56,0,.68.11,1.17.33,1.45.22.28.49.42.81.42s.61-.14.83-.42c.22-.28.33-.8.33-1.55,0-.69-.11-1.18-.33-1.46s-.49-.42-.82-.42Z"/>
      </g>
    </g>
  </g>
</svg>