<?xml version="1.0" encoding="UTF-8"?>
<svg id="Layer_2" data-name="Layer 2" xmlns="http://www.w3.org/2000/svg" width="231.61" height="231.61" viewBox="0 0 231.61 231.61">
  <defs>
    <style>
      .cls-1 {
        fill: #fff;
      }

      .cls-2 {
        fill: #d1394f;
      }

      .cls-3 {
        isolation: isolate;
      }

      .cls-4 {
        fill: #dedc4a;
      }

      .cls-5 {
        fill: #fef3e1;
      }
    </style>
  </defs>
  <g id="Layer_1-2" data-name="Layer 1">
    <g>
      <g>
        <g>
          <path class="cls-4" d="M115.8.5v115.3L103.71,1.14c4.01-.42,8.05-.63,12.09-.63Z"/>
          <path class="cls-1" d="M115.31,115.86L103.16.69l.5-.05C107.67.22,111.75,0,115.8,0h.5v115.8l-1,.05ZM104.26,1.58l11.04,104.72V1c-3.68.02-7.39.21-11.04.58Z"/>
        </g>
        <g>
          <path class="cls-2" d="M115.81,115.8V.5c63.68,0,115.3,51.62,115.3,115.3s-51.62,115.3-115.3,115.3S.5,179.49.5,115.8C.5,56.81,45.03,7.33,103.71,1.14l12.1,114.67h0"/>
          <path class="cls-1" d="M115.8,231.61C51.95,231.61,0,179.66,0,115.8,0,56.38,44.56,6.87,103.65.64l.5-.05.05.5,11.1,105.22V0h.5c63.85,0,115.8,51.95,115.8,115.8s-51.95,115.8-115.8,115.8ZM103.26,1.69C44.92,8.09,1,57.06,1,115.8c0,63.3,51.5,114.8,114.8,114.8s114.8-51.5,114.8-114.8S179.38,1.27,116.3,1v114.8l-1,.05L103.26,1.69Z"/>
        </g>
        <g class="cls-3">
          <path class="cls-1" d="M168.7,134.21l1.26-.12c.11.59.31,1.03.61,1.29.3.27.69.4,1.16.4.4,0,.76-.09,1.06-.28.3-.18.55-.43.75-.74.19-.31.36-.73.49-1.25.13-.53.2-1.06.2-1.61,0-.06,0-.15,0-.26-.26.42-.62.76-1.08,1.02-.46.26-.95.39-1.48.39-.89,0-1.64-.32-2.25-.96s-.92-1.49-.92-2.54.32-1.96.96-2.62c.64-.66,1.44-1,2.41-1,.7,0,1.33.19,1.91.56.58.38,1.02.91,1.32,1.61.3.69.45,1.7.45,3.02s-.15,2.46-.45,3.27c-.3.81-.74,1.43-1.33,1.85-.59.42-1.28.64-2.07.64-.84,0-1.52-.23-2.05-.7-.53-.47-.85-1.12-.96-1.96ZM174.09,129.48c0-.76-.2-1.36-.6-1.8-.4-.44-.89-.67-1.45-.67s-1.09.24-1.53.72c-.43.48-.65,1.1-.65,1.86,0,.68.21,1.24.62,1.66.41.43.92.64,1.52.64s1.11-.21,1.5-.64c.39-.43.59-1.02.59-1.77Z"/>
          <path class="cls-1" d="M178.86,130.88c-.55-.2-.95-.49-1.21-.86-.26-.37-.4-.81-.4-1.33,0-.78.28-1.44.84-1.97s1.31-.8,2.24-.8,1.69.27,2.26.82c.57.54.86,1.21.86,1.99,0,.5-.13.93-.39,1.3-.26.37-.66.65-1.19.85.66.21,1.16.56,1.5,1.04.34.48.52,1.05.52,1.71,0,.92-.32,1.69-.97,2.31s-1.5.94-2.56.94-1.91-.31-2.56-.94-.97-1.41-.97-2.34c0-.7.18-1.28.53-1.75.35-.47.86-.79,1.51-.96ZM178.17,133.6c0,.38.09.74.27,1.09.18.35.44.62.79.82.35.19.73.29,1.13.29.63,0,1.15-.2,1.56-.61.41-.4.61-.92.61-1.54s-.21-1.16-.63-1.57c-.42-.41-.95-.62-1.58-.62s-1.13.21-1.54.61-.61.92-.61,1.54ZM178.59,128.65c0,.51.16.92.49,1.24.33.32.75.48,1.27.48s.92-.16,1.25-.48c.32-.32.49-.71.49-1.17s-.17-.89-.5-1.22c-.33-.33-.75-.49-1.25-.49s-.92.16-1.25.48c-.33.32-.5.71-.5,1.16Z"/>
          <path class="cls-1" d="M185.9,136.69v-1.5h1.5v1.5h-1.5Z"/>
          <path class="cls-1" d="M189.33,133.86l1.32-.18c.15.75.41,1.28.77,1.61.36.33.81.49,1.33.49.62,0,1.14-.21,1.57-.64s.64-.96.64-1.59-.2-1.1-.59-1.5-.9-.59-1.51-.59c-.25,0-.56.05-.93.15l.15-1.16c.09,0,.16.01.21.01.56,0,1.07-.15,1.51-.44.45-.29.67-.74.67-1.35,0-.48-.16-.88-.49-1.2-.33-.32-.75-.47-1.26-.47s-.94.16-1.28.48c-.34.32-.56.8-.66,1.45l-1.32-.23c.16-.88.53-1.57,1.1-2.05.57-.48,1.28-.73,2.13-.73.58,0,1.12.13,1.62.38s.87.59,1.13,1.03.39.89.39,1.38-.12.88-.37,1.27c-.25.38-.62.68-1.1.91.63.15,1.13.45,1.48.91.35.46.53,1.04.53,1.73,0,.94-.34,1.73-1.02,2.38s-1.54.98-2.59.98c-.94,0-1.72-.28-2.34-.84-.62-.56-.98-1.29-1.06-2.18Z"/>
          <path class="cls-1" d="M197.9,128.54c0-.77.19-1.42.58-1.95.38-.54.94-.8,1.67-.8.67,0,1.23.24,1.67.72.44.48.66,1.19.66,2.12s-.22,1.6-.67,2.09-1,.73-1.65.73-1.19-.24-1.62-.72-.65-1.21-.65-2.19ZM200.19,126.69c-.33,0-.6.14-.82.42s-.33.8-.33,1.56c0,.69.11,1.17.33,1.45.22.28.49.42.81.42s.61-.14.82-.42c.22-.28.33-.8.33-1.55,0-.69-.11-1.18-.33-1.46-.22-.28-.49-.42-.82-.42ZM200.2,137.08l5.87-11.3h1.07l-5.84,11.3h-1.09ZM204.83,134.17c0-.77.19-1.42.58-1.96.39-.53.95-.8,1.68-.8.67,0,1.23.24,1.67.72.44.48.66,1.19.66,2.12s-.22,1.61-.67,2.1c-.45.49-1,.73-1.66.73s-1.19-.24-1.62-.73c-.43-.48-.65-1.21-.65-2.18ZM207.13,132.32c-.33,0-.61.14-.82.42-.22.28-.33.8-.33,1.56,0,.68.11,1.17.33,1.45.22.28.49.42.81.42s.61-.14.83-.42c.22-.28.33-.8.33-1.55,0-.69-.11-1.18-.33-1.46s-.49-.42-.82-.42Z"/>
        </g>
      </g>
      <path class="cls-5" d="M134.17,138.1l-1.04-1.41-1.42,1.05-.12,2.27c-4.41,3.8-4.28,3.73-34.44,26.49-3.25,2.45-2.28,9.62-.99,13.49-3.73,5.52-3.78,13.01.41,18.66l6.68-4.95c-2.28-4.83-1.99-10.55.74-15.13,8.43-1.77,13.58-11.1,11.72-19.2l22.52-16.69-3.64-4.91-.42.31ZM110.22,174.62c-1.66,1.46-3.7,2.56-5.74,3.18.83-1.24,1.85-2.37,3-3.33.49.27,1,.52,1.52.73,0-.05.58-.52.57-.58-.47-.23-.95-.45-1.4-.71,1.47-1.1,3.16-1.98,4.89-2.49-.78,1.17-1.74,2.24-2.85,3.19Z"/>
    </g>
  </g>
</svg>