<?xml version="1.0" encoding="UTF-8"?>
<svg id="Layer_2" data-name="Layer 2" xmlns="http://www.w3.org/2000/svg" width="231.66" height="231.61" viewBox="0 0 231.66 231.61">
  <defs>
    <style>
      .cls-1 {
        fill: #723d57;
      }

      .cls-2 {
        fill: #fff;
      }

      .cls-3 {
        fill: #d1394f;
      }

      .cls-4 {
        fill: #659780;
      }

      .cls-5 {
        isolation: isolate;
      }

      .cls-6 {
        fill: #00bfe2;
      }

      .cls-7 {
        fill: #eb6224;
      }
    </style>
  </defs>
  <g id="Layer_1-2" data-name="Layer 1">
    <g>
      <g>
        <path class="cls-3" d="M115.85,115.81L60.4,14.71C77.4,5.39,96.47.5,115.85.5v115.3h0"/>
        <path class="cls-2" d="M115.41,116.05L59.72,14.51l.44-.24C77.18,4.93,96.44,0,115.85,0h.5v115.81l-.94.24ZM61.08,14.91l54.27,98.95V1c-18.91.08-37.65,4.89-54.27,13.91Z"/>
      </g>
      <g>
        <path class="cls-7" d="M115.85,115.81l-25.16,112.53c-41.5-9.28-74.52-40.65-85.92-81.61l111.08-30.91h0"/>
        <path class="cls-2" d="M91.07,228.93l-.49-.11c-41.76-9.34-74.82-40.75-86.29-81.97l-.13-.48.48-.13,111.89-31.14-.18.81-25.27,113.01ZM5.39,147.07c11.45,40.47,43.92,71.31,84.93,80.67l24.87-111.22L5.39,147.07Z"/>
      </g>
      <g>
        <path class="cls-1" d="M115.85,115.81L15.15,59.63c10.56-18.93,26.24-34.5,45.25-44.92l55.45,101.1h0"/>
        <path class="cls-2" d="M117.13,117.09L14.47,59.83l.24-.44c10.62-19.03,26.33-34.64,45.44-45.12l.44-.24.24.44,56.29,102.62ZM15.84,59.44l98.74,55.08L60.2,15.39c-18.6,10.31-33.93,25.52-44.37,44.05Z"/>
      </g>
      <g>
        <path class="cls-4" d="M115.85,115.81L4.77,146.72C-3.38,117.46.36,86.16,15.15,59.63l100.7,56.17h0"/>
        <path class="cls-2" d="M4.42,147.33l-.13-.48C-3.95,117.27-.24,86.21,14.72,59.39l.24-.44.44.24,101.76,56.76L4.42,147.33ZM15.35,60.31C.8,86.65-2.83,117.08,5.12,146.1l109.43-30.45L15.35,60.31Z"/>
      </g>
      <g>
        <path class="cls-6" d="M115.85,115.81V.5c63.68,0,115.3,51.62,115.3,115.3s-51.62,115.3-115.3,115.3c-8.46,0-16.9-.93-25.16-2.78l25.16-112.53h0"/>
        <path class="cls-2" d="M115.85,231.61c-8.48,0-16.99-.94-25.27-2.79l-.49-.11.11-.49,25.15-112.47V0h.5c63.86,0,115.81,51.95,115.81,115.81s-51.95,115.8-115.81,115.8ZM91.29,227.95c8.06,1.76,16.32,2.66,24.56,2.66,63.3,0,114.81-51.5,114.81-114.8S179.43,1.27,116.35,1v114.91s-25.06,112.04-25.06,112.04Z"/>
      </g>
      <g class="cls-5">
        <path class="cls-2" d="M16.06,107.79h-1.32v-8.39c-.32.3-.73.6-1.25.91-.51.3-.98.53-1.39.68v-1.27c.74-.35,1.38-.77,1.93-1.26s.94-.97,1.17-1.43h.85v10.76Z"/>
        <path class="cls-2" d="M26.35,106.52v1.26h-7.09c0-.32.04-.62.15-.91.18-.48.47-.96.87-1.43s.97-1.01,1.72-1.62c1.17-.96,1.95-1.71,2.36-2.27.41-.56.61-1.09.61-1.58,0-.52-.19-.96-.56-1.32-.37-.36-.86-.54-1.46-.54-.63,0-1.14.19-1.52.57s-.57.91-.58,1.58l-1.35-.14c.09-1.01.44-1.78,1.05-2.31s1.42-.79,2.43-.79,1.84.29,2.44.86c.6.57.9,1.28.9,2.12,0,.43-.09.85-.26,1.27-.18.41-.47.85-.87,1.31s-1.08,1.09-2.03,1.89c-.79.66-1.3,1.11-1.52,1.35-.22.24-.41.47-.56.71h5.26Z"/>
        <path class="cls-2" d="M28.5,107.79v-1.5h1.5v1.5h-1.5Z"/>
        <path class="cls-2" d="M36.14,107.79v-2.57h-4.65v-1.21l4.89-6.95h1.08v6.95h1.45v1.21h-1.45v2.57h-1.32ZM36.14,104.02v-4.83l-3.36,4.83h3.36Z"/>
        <path class="cls-2" d="M40.5,99.64c0-.77.19-1.42.58-1.95.38-.54.94-.8,1.67-.8.67,0,1.23.24,1.67.72.44.48.66,1.19.66,2.12s-.22,1.6-.67,2.09-1,.73-1.65.73-1.19-.24-1.62-.72-.65-1.21-.65-2.19ZM42.79,97.79c-.33,0-.6.14-.82.42s-.33.8-.33,1.56c0,.69.11,1.17.33,1.45.22.28.49.42.81.42s.61-.14.82-.42c.22-.28.33-.8.33-1.55,0-.69-.11-1.18-.33-1.46-.22-.28-.49-.42-.82-.42ZM42.8,108.18l5.87-11.3h1.07l-5.84,11.3h-1.09ZM47.43,105.27c0-.77.19-1.42.58-1.96.39-.53.95-.8,1.68-.8.67,0,1.23.24,1.67.72.44.48.66,1.19.66,2.12s-.22,1.61-.67,2.1c-.45.49-1,.73-1.66.73s-1.19-.24-1.62-.73c-.43-.48-.65-1.21-.65-2.18ZM49.73,103.42c-.33,0-.61.14-.82.42-.22.28-.33.8-.33,1.56,0,.68.11,1.17.33,1.45.22.28.49.42.81.42s.61-.14.83-.42c.22-.28.33-.8.33-1.55,0-.69-.11-1.18-.33-1.46s-.49-.42-.82-.42Z"/>
      </g>
      <g class="cls-5">
        <path class="cls-2" d="M43.92,187.52h-1.32v-8.39c-.32.3-.73.6-1.25.91-.51.3-.98.53-1.39.68v-1.27c.74-.35,1.38-.77,1.93-1.26s.94-.97,1.17-1.43h.85v10.76Z"/>
        <path class="cls-2" d="M47.38,178.2v-1.26h6.94v1.02c-.68.73-1.36,1.69-2.03,2.9-.67,1.2-1.19,2.44-1.55,3.71-.26.9-.43,1.88-.5,2.95h-1.35c.01-.84.18-1.86.5-3.06.32-1.19.77-2.35,1.36-3.46.59-1.11,1.22-2.04,1.89-2.8h-5.25Z"/>
        <path class="cls-2" d="M56.36,187.52v-1.5h1.5v1.5h-1.5Z"/>
        <path class="cls-2" d="M66.7,186.26v1.26h-7.09c0-.32.04-.62.15-.91.18-.48.47-.96.87-1.43s.97-1.01,1.72-1.62c1.17-.96,1.95-1.71,2.36-2.27.41-.56.61-1.09.61-1.58,0-.52-.19-.96-.56-1.32-.37-.36-.86-.54-1.46-.54-.63,0-1.14.19-1.52.57s-.57.91-.58,1.58l-1.35-.14c.09-1.01.44-1.78,1.05-2.31s1.42-.79,2.43-.79,1.84.29,2.44.86c.6.57.9,1.28.9,2.12,0,.43-.09.85-.26,1.27-.18.41-.47.85-.87,1.31s-1.08,1.09-2.03,1.89c-.79.66-1.3,1.11-1.52,1.35-.22.24-.41.47-.56.71h5.26Z"/>
        <path class="cls-2" d="M68.36,179.37c0-.77.19-1.42.58-1.95.38-.54.94-.8,1.67-.8.67,0,1.23.24,1.67.72.44.48.66,1.19.66,2.12s-.22,1.6-.67,2.09-1,.73-1.65.73-1.19-.24-1.62-.72-.65-1.21-.65-2.19ZM70.64,177.52c-.33,0-.6.14-.82.42s-.33.8-.33,1.56c0,.69.11,1.17.33,1.45.22.28.49.42.81.42s.61-.14.82-.42c.22-.28.33-.8.33-1.55,0-.69-.11-1.18-.33-1.46-.22-.28-.49-.42-.82-.42ZM70.65,187.92l5.87-11.3h1.07l-5.84,11.3h-1.09ZM75.29,185c0-.77.19-1.42.58-1.96.39-.53.95-.8,1.68-.8.67,0,1.23.24,1.67.72.44.48.66,1.19.66,2.12s-.22,1.61-.67,2.1c-.45.49-1,.73-1.66.73s-1.19-.24-1.62-.73c-.43-.48-.65-1.21-.65-2.18ZM77.58,183.16c-.33,0-.61.14-.82.42-.22.28-.33.8-.33,1.56,0,.68.11,1.17.33,1.45.22.28.49.42.81.42s.61-.14.83-.42c.22-.28.33-.8.33-1.55,0-.69-.11-1.18-.33-1.46s-.49-.42-.82-.42Z"/>
      </g>
      <g class="cls-5">
        <path class="cls-2" d="M182.76,130.58l1.38-.12c.1.67.34,1.18.71,1.52s.82.51,1.35.51c.63,0,1.17-.24,1.61-.72s.66-1.11.66-1.9-.21-1.34-.63-1.78c-.42-.43-.97-.65-1.66-.65-.42,0-.81.1-1.15.29-.34.19-.61.44-.8.75l-1.24-.16,1.04-5.51h5.33v1.26h-4.28l-.58,2.88c.64-.45,1.32-.67,2.03-.67.94,0,1.73.33,2.37.97.64.65.96,1.48.96,2.5s-.28,1.81-.85,2.52c-.69.87-1.63,1.3-2.82,1.3-.97,0-1.77-.27-2.39-.82-.62-.55-.97-1.27-1.06-2.17Z"/>
        <path class="cls-2" d="M191.09,130.56l1.32-.18c.15.75.41,1.28.77,1.61.36.33.81.49,1.33.49.62,0,1.14-.21,1.57-.64s.64-.96.64-1.59-.2-1.1-.59-1.5-.9-.59-1.51-.59c-.25,0-.56.05-.93.15l.15-1.16c.09,0,.16.01.21.01.56,0,1.07-.15,1.51-.44.45-.29.67-.74.67-1.35,0-.48-.16-.88-.49-1.2-.33-.32-.75-.47-1.26-.47s-.94.16-1.28.48c-.34.32-.56.8-.66,1.45l-1.32-.23c.16-.88.53-1.57,1.1-2.05.57-.48,1.28-.73,2.13-.73.58,0,1.12.13,1.62.38s.87.59,1.13,1.03.39.89.39,1.38-.12.88-.37,1.27c-.25.38-.62.68-1.1.91.63.15,1.13.45,1.48.91.35.46.53,1.04.53,1.73,0,.94-.34,1.73-1.02,2.38s-1.54.98-2.59.98c-.94,0-1.72-.28-2.34-.84-.62-.56-.98-1.29-1.06-2.18Z"/>
        <path class="cls-2" d="M200.16,133.39v-1.5h1.5v1.5h-1.5Z"/>
        <path class="cls-2" d="M203.58,130.58l1.38-.12c.1.67.34,1.18.71,1.52s.82.51,1.35.51c.63,0,1.17-.24,1.61-.72s.66-1.11.66-1.9-.21-1.34-.63-1.78c-.42-.43-.97-.65-1.66-.65-.42,0-.81.1-1.15.29-.34.19-.61.44-.8.75l-1.24-.16,1.04-5.51h5.33v1.26h-4.28l-.58,2.88c.64-.45,1.32-.67,2.03-.67.94,0,1.73.33,2.37.97.64.65.96,1.48.96,2.5s-.28,1.81-.85,2.52c-.69.87-1.63,1.3-2.82,1.3-.97,0-1.77-.27-2.39-.82-.62-.55-.97-1.27-1.06-2.17Z"/>
        <path class="cls-2" d="M212.16,125.24c0-.77.19-1.42.58-1.95.38-.54.94-.8,1.67-.8.67,0,1.23.24,1.67.72.44.48.66,1.19.66,2.12s-.22,1.6-.67,2.09-1,.73-1.65.73-1.19-.24-1.62-.72-.65-1.21-.65-2.19ZM214.44,123.39c-.33,0-.6.14-.82.42s-.33.8-.33,1.56c0,.69.11,1.17.33,1.45.22.28.49.42.81.42s.61-.14.82-.42c.22-.28.33-.8.33-1.55,0-.69-.11-1.18-.33-1.46-.22-.28-.49-.42-.82-.42ZM214.45,133.78l5.87-11.3h1.07l-5.84,11.3h-1.09ZM219.09,130.87c0-.77.19-1.42.58-1.96.39-.53.95-.8,1.68-.8.67,0,1.23.24,1.67.72.44.48.66,1.19.66,2.12s-.22,1.61-.67,2.1c-.45.49-1,.73-1.66.73s-1.19-.24-1.62-.73c-.43-.48-.65-1.21-.65-2.18ZM221.38,129.02c-.33,0-.61.14-.82.42-.22.28-.33.8-.33,1.56,0,.68.11,1.17.33,1.45.22.28.49.42.81.42s.61-.14.83-.42c.22-.28.33-.8.33-1.55,0-.69-.11-1.18-.33-1.46s-.49-.42-.82-.42Z"/>
      </g>
    </g>
  </g>
</svg>