<?xml version="1.0" encoding="UTF-8"?>
<svg id="Layer_2" data-name="Layer 2" xmlns="http://www.w3.org/2000/svg" width="230.61" height="231.11" viewBox="0 0 230.61 231.11">
  <defs>
    <style>
      .cls-1 {
        fill: #fff;
      }

      .cls-2 {
        fill: #659780;
      }

      .cls-3 {
        isolation: isolate;
      }

      .cls-4 {
        fill: #dedc4a;
      }

      .cls-5 {
        fill: #fef3e1;
      }
    </style>
  </defs>
  <g id="Layer_1-2" data-name="Layer 1">
    <g>
      <g>
        <g>
          <path class="cls-4" d="M115.31.5v115.3L86.06,4.27c4.77-1.25,9.61-2.19,14.51-2.83,4.89-.62,9.81-.94,14.74-.94Z"/>
          <path class="cls-1" d="M114.83,115.93L85.45,3.91l.48-.13c4.77-1.25,9.67-2.2,14.57-2.84,4.91-.63,9.89-.95,14.81-.95h.5v115.8l-.98.13ZM86.67,4.63l28.14,107.3V1c-4.71.02-9.48.34-14.18.94-4.69.61-9.39,1.51-13.96,2.69Z"/>
        </g>
        <path class="cls-2" d="M230.61,115.81c0,63.68-51.62,115.3-115.3,115.3S0,179.49,0,115.81c0-31.23,12.67-61.11,35.09-82.83,14.24-13.79,31.8-23.68,50.97-28.71l29.25,111.54V.5c63.68,0,115.3,51.62,115.3,115.31Z"/>
        <g class="cls-3">
          <path class="cls-1" d="M159.75,126.88c-.54-.2-.95-.49-1.21-.86-.26-.37-.39-.81-.39-1.33,0-.78.28-1.44.84-1.97s1.31-.8,2.24-.8,1.69.27,2.26.82c.57.54.86,1.21.86,1.99,0,.5-.13.93-.39,1.3-.26.37-.66.65-1.19.85.66.21,1.16.56,1.5,1.04.34.48.52,1.05.52,1.71,0,.92-.32,1.69-.97,2.31s-1.5.94-2.56.94-1.91-.31-2.56-.94-.97-1.41-.97-2.34c0-.7.18-1.28.53-1.75.35-.47.86-.79,1.51-.96ZM159.06,129.6c0,.38.09.74.27,1.09.18.35.44.62.79.82.35.19.73.29,1.13.29.63,0,1.15-.2,1.56-.61.41-.4.62-.92.62-1.54s-.21-1.16-.63-1.57c-.42-.41-.95-.62-1.58-.62s-1.13.21-1.54.61-.61.92-.61,1.54ZM159.49,124.65c0,.51.16.92.49,1.24.33.32.75.48,1.27.48s.92-.16,1.25-.48.49-.71.49-1.17-.17-.89-.5-1.22-.75-.49-1.25-.49-.92.16-1.25.48c-.33.32-.5.71-.5,1.16Z"/>
          <path class="cls-1" d="M166.14,123.38v-1.26h6.94v1.02c-.68.73-1.36,1.69-2.03,2.9-.67,1.2-1.19,2.44-1.55,3.71-.26.9-.43,1.88-.5,2.95h-1.35c.02-.84.18-1.86.5-3.06.32-1.19.77-2.35,1.36-3.46s1.22-2.04,1.89-2.8h-5.25Z"/>
          <path class="cls-1" d="M175.12,132.7v-1.5h1.5v1.5h-1.5Z"/>
          <path class="cls-1" d="M180.57,126.88c-.55-.2-.95-.49-1.21-.86-.26-.37-.4-.81-.4-1.33,0-.78.28-1.44.84-1.97s1.31-.8,2.24-.8,1.69.27,2.26.82c.57.54.86,1.21.86,1.99,0,.5-.13.93-.39,1.3-.26.37-.66.65-1.19.85.66.21,1.16.56,1.5,1.04.34.48.52,1.05.52,1.71,0,.92-.32,1.69-.97,2.31s-1.5.94-2.56.94-1.91-.31-2.56-.94-.97-1.41-.97-2.34c0-.7.18-1.28.53-1.75.35-.47.86-.79,1.51-.96ZM179.88,129.6c0,.38.09.74.27,1.09.18.35.44.62.79.82.35.19.73.29,1.13.29.63,0,1.15-.2,1.56-.61.41-.4.61-.92.61-1.54s-.21-1.16-.63-1.57c-.42-.41-.95-.62-1.58-.62s-1.13.21-1.54.61-.61.92-.61,1.54ZM180.31,124.65c0,.51.16.92.49,1.24.33.32.75.48,1.27.48s.92-.16,1.25-.48c.32-.32.49-.71.49-1.17s-.17-.89-.5-1.22c-.33-.33-.75-.49-1.25-.49s-.92.16-1.25.48c-.33.32-.5.71-.5,1.16Z"/>
          <path class="cls-1" d="M187.12,124.55c0-.77.19-1.42.58-1.95.38-.54.94-.8,1.67-.8.67,0,1.23.24,1.67.72.44.48.66,1.19.66,2.12s-.22,1.6-.67,2.09-1,.73-1.65.73-1.19-.24-1.62-.72-.65-1.21-.65-2.19ZM189.41,122.7c-.33,0-.6.14-.82.42s-.33.8-.33,1.56c0,.69.11,1.17.33,1.45.22.28.49.42.81.42s.61-.14.82-.42c.22-.28.33-.8.33-1.55,0-.69-.11-1.18-.33-1.46-.22-.28-.49-.42-.82-.42ZM189.42,133.09l5.87-11.3h1.07l-5.84,11.3h-1.09ZM194.06,130.18c0-.77.19-1.42.58-1.96.39-.53.95-.8,1.68-.8.67,0,1.23.24,1.67.72.44.48.66,1.19.66,2.12s-.22,1.61-.67,2.1c-.45.49-1,.73-1.66.73s-1.19-.24-1.62-.73c-.43-.48-.65-1.21-.65-2.18ZM196.35,128.33c-.33,0-.61.14-.82.42-.22.28-.33.8-.33,1.56,0,.68.11,1.17.33,1.45.22.28.49.42.81.42s.61-.14.83-.42c.22-.28.33-.8.33-1.55,0-.69-.11-1.18-.33-1.46s-.49-.42-.82-.42Z"/>
        </g>
      </g>
      <path class="cls-5" d="M129.94,160.89c-.1.16-.21.32-.32.46l7.79,4.76c1.59.96,2.09,3.04,1.12,4.63-.97,1.59-3.05,2.09-4.64,1.12l-4.4-2.69-3.31,5.41c-2.6,4.25-5.97,7.98-9.95,10.99l-24.57,18.56c-.76.58-1.75-.32-1.25-1.13l25.69-42.03-4.4-2.69c-1.04-.64-1.62-1.75-1.62-2.88,0-.6.17-1.2.5-1.75.97-1.59,3.04-2.09,4.63-1.12l7.8,4.76c.07-.17.16-.33.25-.49l9.83-16.08c.74-1.21,2.03-1.88,3.35-1.88.7,0,1.41.18,2.05.58,1.85,1.13,2.43,3.54,1.3,5.39l-9.83,16.08Z"/>
    </g>
  </g>
</svg>