<?xml version="1.0" encoding="UTF-8"?>
<svg id="Layer_2" data-name="Layer 2" xmlns="http://www.w3.org/2000/svg" width="231.61" height="231.61" viewBox="0 0 231.61 231.61">
  <defs>
    <style>
      .cls-1 {
        fill: #fff;
      }

      .cls-2 {
        fill: #d1394f;
      }

      .cls-3 {
        isolation: isolate;
      }

      .cls-4 {
        fill: #f39c12;
      }

      .cls-5 {
        fill: #00bfe2;
      }
    </style>
  </defs>
  <g id="Layer_1-2" data-name="Layer 1">
    <g>
      <g>
        <path class="cls-2" d="M115.8,115.81V.5c63.68,0,115.3,51.62,115.3,115.3s-51.62,115.3-115.3,115.3S.5,179.49.5,115.81c0-14.17,2.61-28.22,7.7-41.44l107.6,41.44h0"/>
        <path class="cls-1" d="M115.81,231.61C51.95,231.61,0,179.66,0,115.81c0-14.29,2.6-28.29,7.74-41.62l.18-.47,107.39,41.36V0h.5c63.85,0,115.8,51.95,115.8,115.81s-51.95,115.8-115.8,115.8ZM8.49,75.01c-4.97,13.08-7.49,26.8-7.49,40.79,0,63.3,51.5,114.8,114.81,114.8s114.8-51.5,114.8-114.8S179.38,1.27,116.31,1v115.53L8.49,75.01Z"/>
      </g>
      <g>
        <path class="cls-4" d="M115.8,115.81L57.04,16.6C74.83,6.06,95.13.5,115.8.5v115.3h0"/>
        <path class="cls-1" d="M116.31,117.63L56.36,16.42l.43-.25C74.64,5.59,95.05,0,115.81,0h.5v117.63ZM57.73,16.77l57.58,97.21V1c-20.23.09-40.12,5.54-57.58,15.77Z"/>
      </g>
      <g>
        <path class="cls-5" d="M115.8,115.81L8.2,74.36c9.32-24.2,26.53-44.55,48.84-57.77l58.76,99.21h0"/>
        <path class="cls-1" d="M116.97,116.79L7.56,74.65l.18-.47c9.32-24.2,26.74-44.8,49.05-58.02l.43-.25.25.43,59.5,100.45ZM8.85,74.08l105.79,40.74L56.87,17.28c-21.77,13.03-38.79,33.16-48.02,56.8Z"/>
      </g>
      <g class="cls-3">
        <path class="cls-1" d="M76.71,24.08c-.55-.2-.95-.49-1.21-.86-.26-.37-.39-.81-.39-1.33,0-.78.28-1.44.84-1.97s1.31-.8,2.24-.8,1.69.27,2.26.82c.57.54.86,1.21.86,1.99,0,.5-.13.93-.39,1.3-.26.37-.66.65-1.19.85.66.21,1.16.56,1.5,1.04.34.48.52,1.05.52,1.71,0,.92-.32,1.69-.97,2.31s-1.5.94-2.56.94-1.91-.31-2.56-.94-.97-1.41-.97-2.34c0-.7.18-1.28.53-1.75.35-.47.86-.79,1.51-.96ZM76.02,26.8c0,.38.09.74.27,1.09.18.35.44.62.79.82s.73.29,1.13.29c.63,0,1.15-.2,1.56-.61.41-.4.61-.92.61-1.54s-.21-1.16-.63-1.57c-.42-.41-.95-.62-1.58-.62s-1.13.21-1.54.61-.61.92-.61,1.54ZM76.45,21.85c0,.51.16.92.49,1.24.33.32.75.48,1.27.48s.92-.16,1.25-.48.49-.71.49-1.17-.17-.89-.5-1.22-.75-.49-1.25-.49-.92.16-1.25.48c-.33.32-.5.71-.5,1.16Z"/>
        <path class="cls-1" d="M83.75,29.9v-1.5h1.5v1.5h-1.5Z"/>
        <path class="cls-1" d="M87.18,27.09l1.38-.12c.1.67.34,1.18.71,1.52s.82.51,1.35.51c.63,0,1.17-.24,1.61-.72.44-.48.66-1.11.66-1.9s-.21-1.34-.63-1.78c-.42-.43-.97-.65-1.66-.65-.42,0-.81.1-1.15.29-.34.19-.61.44-.8.75l-1.24-.16,1.04-5.51h5.33v1.26h-4.28l-.58,2.88c.64-.45,1.32-.67,2.03-.67.94,0,1.73.33,2.37.97.64.65.97,1.48.97,2.5s-.28,1.81-.85,2.52c-.69.87-1.63,1.3-2.82,1.3-.98,0-1.77-.27-2.39-.82-.62-.55-.97-1.27-1.06-2.17Z"/>
        <path class="cls-1" d="M95.75,21.75c0-.77.19-1.42.58-1.95s.94-.8,1.67-.8c.67,0,1.23.24,1.67.72.44.48.66,1.19.66,2.12s-.22,1.6-.67,2.09-1,.73-1.65.73-1.19-.24-1.62-.72c-.43-.48-.65-1.21-.65-2.19ZM98.04,19.9c-.33,0-.6.14-.82.42s-.33.8-.33,1.56c0,.69.11,1.17.33,1.45.22.28.49.42.81.42s.61-.14.82-.42c.22-.28.33-.8.33-1.55,0-.69-.11-1.18-.33-1.46s-.49-.42-.82-.42ZM98.05,30.29l5.86-11.3h1.07l-5.84,11.3h-1.09ZM102.69,27.38c0-.77.19-1.42.58-1.96s.95-.8,1.68-.8c.67,0,1.23.24,1.67.72.44.48.66,1.19.66,2.12s-.22,1.61-.67,2.1c-.45.49-1,.73-1.66.73s-1.19-.24-1.62-.73c-.43-.48-.65-1.21-.65-2.18ZM104.98,25.53c-.33,0-.61.14-.82.42-.22.28-.33.8-.33,1.56,0,.68.11,1.17.33,1.45.22.28.49.42.81.42s.61-.14.83-.42c.22-.28.33-.8.33-1.55,0-.69-.11-1.18-.33-1.46-.22-.28-.49-.42-.82-.42Z"/>
      </g>
      <g class="cls-3">
        <path class="cls-1" d="M29.64,62.44h-1.32v-8.39c-.32.3-.73.6-1.25.91-.51.3-.98.53-1.39.68v-1.27c.74-.35,1.38-.77,1.93-1.26.55-.49.94-.97,1.17-1.43h.85v10.76Z"/>
        <path class="cls-1" d="M33.01,57.15c0-1.27.13-2.29.39-3.06.26-.77.65-1.37,1.16-1.79.51-.42,1.16-.63,1.94-.63.58,0,1.08.12,1.51.35.43.23.79.57,1.07,1s.5.97.67,1.59c.16.63.24,1.47.24,2.53,0,1.26-.13,2.27-.39,3.05-.26.77-.65,1.37-1.16,1.79-.51.42-1.16.63-1.95.63-1.03,0-1.85-.37-2.44-1.11-.71-.89-1.06-2.34-1.06-4.36ZM34.36,57.15c0,1.76.21,2.93.62,3.51.41.58.92.87,1.52.87s1.11-.29,1.52-.88.62-1.75.62-3.51-.21-2.94-.62-3.52-.92-.87-1.54-.87-1.09.26-1.45.77c-.45.65-.68,1.86-.68,3.62Z"/>
        <path class="cls-1" d="M42.08,62.44v-1.5h1.5v1.5h-1.5Z"/>
        <path class="cls-1" d="M52.33,54.35l-1.31.1c-.12-.52-.28-.89-.5-1.13-.36-.38-.79-.56-1.32-.56-.42,0-.79.12-1.1.35-.41.3-.74.74-.98,1.32-.24.58-.36,1.41-.37,2.48.32-.48.7-.84,1.16-1.08.46-.23.94-.35,1.44-.35.88,0,1.62.32,2.24.97.62.65.92,1.48.92,2.5,0,.67-.15,1.3-.44,1.88-.29.58-.69,1.02-1.2,1.33-.51.31-1.08.46-1.73.46-1.1,0-1.99-.4-2.68-1.21-.69-.81-1.04-2.14-1.04-3.99,0-2.07.38-3.58,1.15-4.52.67-.82,1.57-1.23,2.7-1.23.84,0,1.53.24,2.07.71.54.47.86,1.13.97,1.96ZM46.96,58.97c0,.45.1.89.29,1.3.19.41.46.73.81.95s.71.33,1.09.33c.56,0,1.03-.22,1.43-.67.4-.45.6-1.06.6-1.83s-.2-1.33-.59-1.75c-.4-.43-.89-.64-1.49-.64s-1.1.21-1.51.64c-.41.43-.62.99-.62,1.68Z"/>
        <path class="cls-1" d="M54.08,54.29c0-.77.19-1.42.58-1.95s.94-.8,1.67-.8c.67,0,1.23.24,1.67.72.44.48.66,1.19.66,2.12s-.22,1.6-.67,2.09-1,.73-1.65.73-1.19-.24-1.62-.72c-.43-.48-.65-1.21-.65-2.19ZM56.37,52.45c-.33,0-.6.14-.82.42s-.33.8-.33,1.56c0,.69.11,1.17.33,1.45.22.28.49.42.81.42s.61-.14.82-.42c.22-.28.33-.8.33-1.55,0-.69-.11-1.18-.33-1.46s-.49-.42-.82-.42ZM56.38,62.84l5.86-11.3h1.07l-5.84,11.3h-1.09ZM61.01,59.93c0-.77.19-1.42.58-1.96s.95-.8,1.68-.8c.67,0,1.23.24,1.67.72.44.48.66,1.19.66,2.12s-.22,1.61-.67,2.1c-.45.49-1,.73-1.66.73s-1.19-.24-1.62-.73c-.43-.48-.65-1.21-.65-2.18ZM63.31,58.08c-.33,0-.61.14-.82.42-.22.28-.33.8-.33,1.56,0,.68.11,1.17.33,1.45.22.28.49.42.81.42s.61-.14.83-.42c.22-.28.33-.8.33-1.55,0-.69-.11-1.18-.33-1.46-.22-.28-.49-.42-.82-.42Z"/>
      </g>
      <g class="cls-3">
        <path class="cls-1" d="M149.62,187.86c-.55-.2-.95-.49-1.21-.86-.26-.37-.4-.81-.4-1.33,0-.78.28-1.44.84-1.97s1.31-.8,2.24-.8,1.69.27,2.26.82c.57.54.86,1.21.86,1.99,0,.5-.13.93-.39,1.3-.26.37-.66.65-1.19.85.66.21,1.16.56,1.5,1.04.34.48.52,1.05.52,1.71,0,.92-.32,1.69-.97,2.31s-1.5.94-2.56.94-1.91-.31-2.56-.94-.97-1.41-.97-2.34c0-.7.18-1.28.53-1.75.35-.47.86-.79,1.51-.96ZM148.94,190.58c0,.38.09.74.27,1.09.18.35.44.62.79.82.35.19.73.29,1.13.29.63,0,1.15-.2,1.56-.61.41-.4.61-.92.61-1.54s-.21-1.16-.63-1.57c-.42-.41-.95-.62-1.58-.62s-1.13.21-1.54.61-.61.92-.61,1.54ZM149.36,185.63c0,.51.16.92.49,1.24.33.32.75.48,1.27.48s.92-.16,1.25-.48c.32-.32.49-.71.49-1.17s-.17-.89-.5-1.22c-.33-.33-.75-.49-1.25-.49s-.92.16-1.25.48c-.33.32-.5.71-.5,1.16Z"/>
        <path class="cls-1" d="M155.93,188.38c0-1.27.13-2.29.39-3.06.26-.77.65-1.37,1.16-1.79.51-.42,1.16-.63,1.94-.63.58,0,1.08.12,1.51.35s.79.57,1.08,1c.28.44.5.97.67,1.59.16.63.24,1.47.24,2.53,0,1.26-.13,2.27-.39,3.05-.26.77-.64,1.37-1.16,1.79-.51.42-1.16.63-1.95.63-1.03,0-1.85-.37-2.44-1.11-.71-.89-1.06-2.34-1.06-4.36ZM157.28,188.38c0,1.76.21,2.93.62,3.51.41.58.92.87,1.52.87s1.11-.29,1.52-.88.62-1.75.62-3.51-.21-2.94-.62-3.52-.92-.87-1.54-.87-1.09.26-1.45.77c-.45.65-.68,1.86-.68,3.62Z"/>
        <path class="cls-1" d="M164.99,193.67v-1.5h1.5v1.5h-1.5Z"/>
        <path class="cls-1" d="M168.61,191.19l1.26-.12c.11.59.31,1.03.61,1.29.3.27.69.4,1.16.4.4,0,.76-.09,1.06-.28.3-.18.55-.43.75-.74.19-.31.36-.73.49-1.25.13-.53.2-1.06.2-1.61,0-.06,0-.15,0-.26-.26.42-.62.76-1.08,1.02-.46.26-.95.39-1.48.39-.89,0-1.64-.32-2.25-.96s-.92-1.49-.92-2.54.32-1.96.96-2.62c.64-.66,1.44-1,2.41-1,.7,0,1.33.19,1.91.56.58.38,1.02.91,1.32,1.61.3.69.45,1.7.45,3.02s-.15,2.46-.45,3.27c-.3.81-.74,1.43-1.33,1.85-.59.42-1.28.64-2.07.64-.84,0-1.52-.23-2.05-.7-.53-.47-.85-1.12-.96-1.96ZM174,186.46c0-.76-.2-1.36-.6-1.8-.4-.44-.89-.67-1.45-.67s-1.09.24-1.53.72c-.43.48-.65,1.1-.65,1.86,0,.68.21,1.24.62,1.66.41.43.92.64,1.52.64s1.11-.21,1.5-.64c.39-.43.59-1.02.59-1.77Z"/>
        <path class="cls-1" d="M176.99,185.52c0-.77.19-1.42.58-1.95.38-.54.94-.8,1.67-.8.67,0,1.23.24,1.67.72.44.48.66,1.19.66,2.12s-.22,1.6-.67,2.09-1,.73-1.65.73-1.19-.24-1.62-.72-.65-1.21-.65-2.19ZM179.28,183.67c-.33,0-.6.14-.82.42s-.33.8-.33,1.56c0,.69.11,1.17.33,1.45.22.28.49.42.81.42s.61-.14.82-.42c.22-.28.33-.8.33-1.55,0-.69-.11-1.18-.33-1.46-.22-.28-.49-.42-.82-.42ZM179.29,194.06l5.87-11.3h1.07l-5.84,11.3h-1.09ZM183.93,191.15c0-.77.19-1.42.58-1.96.39-.53.95-.8,1.68-.8.67,0,1.23.24,1.67.72.44.48.66,1.19.66,2.12s-.22,1.61-.67,2.1c-.45.49-1,.73-1.66.73s-1.19-.24-1.62-.73c-.43-.48-.65-1.21-.65-2.18ZM186.22,189.3c-.33,0-.61.14-.82.42-.22.28-.33.8-.33,1.56,0,.68.11,1.17.33,1.45.22.28.49.42.81.42s.61-.14.83-.42c.22-.28.33-.8.33-1.55,0-.69-.11-1.18-.33-1.46s-.49-.42-.82-.42Z"/>
      </g>
    </g>
  </g>
</svg>