<?xml version="1.0" encoding="UTF-8"?>
<svg id="Layer_2" data-name="Layer 2" xmlns="http://www.w3.org/2000/svg" width="44.84" height="61.97" viewBox="0 0 44.84 61.97">
  <defs>
    <style>
      .cls-1 {
        fill: #b85858;
      }
    </style>
  </defs>
  <g id="Layer_1-2" data-name="Layer 1">
    <path class="cls-1" d="M40.78,1.41l-1.04-1.41-1.42,1.05-.12,2.27c-4.41,3.8-4.28,3.73-34.44,26.49-3.25,2.45-2.28,9.62-.99,13.49-3.73,5.52-3.78,13.01.41,18.66l6.68-4.95c-2.28-4.83-1.99-10.55.74-15.13,8.43-1.77,13.58-11.1,11.72-19.2L44.84,6.01l-3.64-4.91-.42.31ZM16.84,37.93c-1.66,1.46-3.7,2.56-5.74,3.18.83-1.24,1.85-2.37,3-3.33.49.27,1,.52,1.52.73,0-.05.58-.52.57-.58-.47-.23-.95-.45-1.4-.71,1.47-1.1,3.16-1.98,4.89-2.49-.78,1.17-1.74,2.24-2.85,3.19Z"/>
  </g>
</svg>