<?xml version="1.0" encoding="UTF-8"?>
<svg id="Layer_2" data-name="Layer 2" xmlns="http://www.w3.org/2000/svg" width="50.09" height="65.48" viewBox="0 0 50.09 65.48">
  <defs>
    <style>
      .cls-1 {
        fill: #b85858;
      }
    </style>
  </defs>
  <g id="Layer_1-2" data-name="Layer 1">
    <path class="cls-1" d="M39.68,22.05c-.1.16-.21.32-.32.46l7.79,4.76c1.59.96,2.09,3.04,1.12,4.63-.97,1.59-3.05,2.09-4.64,1.12l-4.4-2.69-3.31,5.41c-2.6,4.25-5.97,7.98-9.95,10.99L1.39,65.3c-.76.58-1.75-.32-1.25-1.13L25.83,22.13l-4.4-2.69c-1.04-.64-1.62-1.75-1.62-2.88,0-.6.17-1.2.5-1.75.97-1.59,3.04-2.09,4.63-1.12l7.8,4.76c.07-.17.16-.33.25-.49L42.82,1.88c.74-1.21,2.03-1.88,3.35-1.88.7,0,1.41.18,2.05.58,1.85,1.13,2.43,3.54,1.3,5.39l-9.83,16.08Z"/>
  </g>
</svg>