<?xml version="1.0" encoding="UTF-8"?>
<svg id="Layer_2" data-name="Layer 2" xmlns="http://www.w3.org/2000/svg" width="1459.49" height="277.3" viewBox="0 0 1459.49 277.3">
  <defs>
    <style>
      .cls-1 {
        fill: #b85858;
      }
    </style>
  </defs>
  <g id="Layer_1-2" data-name="Layer 1">
    <g>
      <g>
        <path class="cls-1" d="M16.65,236.05l26.68-74.18c3.59-9.84-1.7-20.81-2.27-22.52v-.57h33.68l39.74,105.59c4.92,13.06,9.46,22.52,14.57,30.09v.57h-44.66v-.76c.57-2.84,4.35-17.03-.57-30.09l-5.68-15.33H28.57l-3.41,9.46c-5.49,15.52,1.14,32.55,1.89,35.76v.95H0v-.57c3.97-7,10.79-21.76,16.65-38.41ZM74.93,220.34l-22.14-59.23-21.19,59.23h43.33Z"/>
        <path class="cls-1" d="M137,265.19v-31.03h1.32c13.62,14,31.98,34.44,51.85,34.44,12.11,0,22.52-7.19,22.52-20.25,0-15.9-15.89-23.27-36.71-30.84-23.46-8.33-40.87-19.87-40.87-40.31s17.79-40.3,50.9-40.3c17.6,0,35.38,6.06,46.74,10.79v30.09h-.95c-12.68-12.49-31.79-32.36-49.77-32.36-13.43,0-21.57,8.52-21.57,17.98,0,14,17.98,21,39.17,29.14,30.47,12.3,38.79,28.76,38.79,44.09,0,27.63-24.6,40.68-51.09,40.68-14.19,0-31.79-4.35-50.33-12.11Z"/>
        <path class="cls-1" d="M252.42,265.19v-31.03h1.32c13.62,14,31.98,34.44,51.85,34.44,12.11,0,22.52-7.19,22.52-20.25,0-15.9-15.89-23.27-36.71-30.84-23.46-8.33-40.87-19.87-40.87-40.31s17.79-40.3,50.9-40.3c17.6,0,35.38,6.06,46.74,10.79v30.09h-.95c-12.68-12.49-31.79-32.36-49.77-32.36-13.43,0-21.57,8.52-21.57,17.98,0,14,17.98,21,39.17,29.14,30.47,12.3,38.79,28.76,38.79,44.09,0,27.63-24.6,40.68-51.09,40.68-14.19,0-31.79-4.35-50.33-12.11Z"/>
        <path class="cls-1" d="M373.15,236.05l26.68-74.18c3.59-9.84-1.7-20.81-2.27-22.52v-.57h33.68l39.74,105.59c4.92,13.06,9.46,22.52,14.57,30.09v.57h-44.66v-.76c.57-2.84,4.35-17.03-.57-30.09l-5.68-15.33h-49.58l-3.41,9.46c-5.49,15.52,1.14,32.55,1.89,35.76v.95h-27.06v-.57c3.97-7,10.79-21.76,16.65-38.41ZM431.43,220.34l-22.14-59.23-21.19,59.23h43.33Z"/>
        <path class="cls-1" d="M493.5,265.19v-31.03h1.33c13.62,14,31.98,34.44,51.85,34.44,12.11,0,22.52-7.19,22.52-20.25,0-15.9-15.9-23.27-36.71-30.84-23.46-8.33-40.87-19.87-40.87-40.31s17.79-40.3,50.9-40.3c17.6,0,35.38,6.06,46.74,10.79v30.09h-.95c-12.68-12.49-31.79-32.36-49.77-32.36-13.44,0-21.57,8.52-21.57,17.98,0,14,17.98,21,39.17,29.14,30.46,12.3,38.79,28.76,38.79,44.09,0,27.63-24.6,40.68-51.09,40.68-14.19,0-31.79-4.35-50.33-12.11Z"/>
        <path class="cls-1" d="M608.92,265.19v-31.03h1.32c13.62,14,31.98,34.44,51.85,34.44,12.11,0,22.52-7.19,22.52-20.25,0-15.9-15.89-23.27-36.71-30.84-23.46-8.33-40.87-19.87-40.87-40.31s17.79-40.3,50.9-40.3c17.6,0,35.38,6.06,46.74,10.79v30.09h-.95c-12.68-12.49-31.79-32.36-49.77-32.36-13.43,0-21.57,8.52-21.57,17.98,0,14,17.98,21,39.17,29.14,30.47,12.3,38.79,28.76,38.79,44.09,0,27.63-24.6,40.68-51.09,40.68-14.19,0-31.79-4.35-50.33-12.11Z"/>
        <path class="cls-1" d="M761.63,275.03h-38.03v-.76c.57-2.46,4.92-16.08,4.92-28.76v-77.2c0-12.68-4.35-26.3-4.92-28.76v-.76h38.03v.76c-.38,2.46-4.73,16.08-4.73,28.76v77.2c0,12.68,4.35,26.3,4.73,28.76v.76Z"/>
        <path class="cls-1" d="M796.06,163.19v69.07c0,18.35,8.7,38.22,9.65,41.82v.95h-27.82v-.95c.95-3.6,9.46-23.46,9.46-41.82v-61.5c0-13.62-6.62-28-7.38-31.22v-.76h34.25l67.55,99.72v-56.96c0-18.54-8.52-38.22-9.46-41.82v-.95h27.82v.95c-.95,3.6-9.65,23.27-9.65,41.82v93.48h-17.98l-76.45-111.83Z"/>
        <path class="cls-1" d="M918.3,236.05l26.68-74.18c3.6-9.84-1.7-20.81-2.27-22.52v-.57h33.68l39.74,105.59c4.92,13.06,9.46,22.52,14.57,30.09v.57h-44.66v-.76c.57-2.84,4.35-17.03-.57-30.09l-5.68-15.33h-49.58l-3.41,9.46c-5.49,15.52,1.13,32.55,1.89,35.76v.95h-27.06v-.57c3.97-7,10.79-21.76,16.65-38.41ZM976.58,220.34l-22.14-59.23-21.19,59.23h43.33Z"/>
        <path class="cls-1" d="M1017.46,138.78h118.08v37.47h-.95c-2.84-2.08-20.06-29.14-35.95-29.14h-7.95v98.4c0,12.68,4.35,26.3,4.92,28.76v.76h-38.22v-.76c.57-2.46,4.92-16.08,4.92-28.76v-98.4h-8.14c-15.71,0-32.92,27.06-35.95,29.14h-.76v-37.47Z"/>
        <path class="cls-1" d="M1184.73,275.03h-38.03v-.76c.57-2.46,4.92-16.08,4.92-28.76v-77.2c0-12.68-4.35-26.3-4.92-28.76v-.76h38.03v.76c-.38,2.46-4.73,16.08-4.73,28.76v77.2c0,12.68,4.35,26.3,4.73,28.76v.76Z"/>
        <path class="cls-1" d="M1198.36,206.53c0-41.44,28.57-69.63,64.53-69.63s64.71,28.19,64.71,69.63-28.95,70.58-64.71,70.58-64.53-28.95-64.53-70.58ZM1295.81,206.34c0-27.63-11.16-61.69-32.92-61.69s-32.74,34.63-32.74,62.25,10.98,62.44,32.74,62.44,32.92-35.01,32.92-63.01Z"/>
        <path class="cls-1" d="M1355.41,163.19v69.07c0,18.35,8.7,38.22,9.65,41.82v.95h-27.82v-.95c.95-3.6,9.46-23.46,9.46-41.82v-61.5c0-13.62-6.62-28-7.38-31.22v-.76h34.25l67.55,99.72v-56.96c0-18.54-8.51-38.22-9.46-41.82v-.95h27.82v.95c-.95,3.6-9.65,23.27-9.65,41.82v93.48h-17.98l-76.45-111.83Z"/>
      </g>
      <g>
        <path class="cls-1" d="M8.38,18.36h71.49v11.74h-.39c-4.83-4.17-10.83-7.83-17.87-7.83h-14.09v73.45c0,6.39.91,11.87,1.96,16.18v.39h-10.44v-.39c1.04-4.31,1.96-9.78,1.96-16.18V22.27h-14.35c-7.04,0-13.05,3.65-17.87,7.83h-.39v-11.74Z"/>
        <path class="cls-1" d="M99.96,112.29h-10.05v-.39c1.04-4.31,1.96-9.78,1.96-16.18v-61.97c0-6.39-.65-11.74-2.48-15.79l-.13-.39,1.96-.39,6.78-1.44v43.31c7.31-8.87,14.48-11.48,21.4-11.48,9.92,0,21,5.22,21,22.57v25.57c0,6.39.91,11.87,1.96,16.18v.39h-10.05v-.39c1.04-4.31,1.96-9.78,1.96-16.18v-25.18c0-12.52-7.7-18.13-16.18-18.13-7.04,0-13.57,3.78-20.09,10.83v32.49c0,6.39.91,11.87,1.96,16.18v.39Z"/>
        <path class="cls-1" d="M153.33,80.2c0-19.31,12.26-32.62,27.66-32.62,13.83,0,25.44,10.83,25.44,30.01h-46.18v2.61c0,16.18,9.13,27.92,23.48,27.92,7.7,0,15.39-3.39,22.96-12l.39.26c-5.35,11.09-15,16.7-25.44,16.7-16.31,0-28.31-13.44-28.31-32.88ZM160.63,73.94h38.62c-.78-14.74-7.57-22.83-18.26-22.83-11.61,0-18.66,9.52-20.35,22.83Z"/>
      </g>
      <g>
        <path class="cls-1" d="M802.6,80.2c0-19.31,12.79-32.62,29.48-32.62s29.62,13.31,29.62,32.62-13.05,32.88-29.62,32.88-29.48-13.44-29.48-32.88ZM854.79,80.2c0-16.83-9.39-28.96-22.7-28.96s-22.57,12.13-22.57,28.96,9.13,29.09,22.57,29.09,22.7-12,22.7-29.09Z"/>
        <path class="cls-1" d="M865.88,48.36h10.7v-6.65c0-19.57,6.91-25.96,16.44-25.96,4.17,0,9.39,1.17,14.48,3.78v8.35h-.52c-5.74-6.39-10.05-8.61-14.09-8.61-6.79,0-10.18,6-10.18,20.87v8.22h21.66v3.91h-21.66v43.44c0,6.39.91,11.87,1.96,16.18v.39h-10.05v-.39c1.04-4.31,1.96-9.78,1.96-16.18v-43.44h-10.7v-3.91Z"/>
      </g>
      <g>
        <path class="cls-1" d="M235.74,112.29h-21.69v-.46c.77-3.69,3.08-12.46,3.08-21.38V23.38c0-8.92-2.31-17.69-3.08-21.38v-.46h21.69v.46c-.92,3.69-3.23,12.46-3.23,21.38v29.84h52.92v-29.84c0-8.92-2.31-17.69-3.08-21.38v-.46h21.54v.46c-.77,3.69-3.08,12.46-3.08,21.38v67.07c0,8.92,2.31,17.69,3.08,21.38v.46h-21.54v-.46c.77-3.69,3.08-12.46,3.08-21.38v-31.23h-52.92v31.23c0,8.92,2.31,17.69,3.23,21.38v.46Z"/>
        <path class="cls-1" d="M341.56,112.29h-21.69v-.46c.77-3.69,3.08-12.46,3.08-21.38V23.38c0-8.92-2.31-17.69-3.08-21.38v-.46h21.69v.46c-.92,3.69-3.23,12.46-3.23,21.38v67.07c0,8.92,2.31,17.69,3.23,21.38v.46Z"/>
        <path class="cls-1" d="M357.1,102.75v-20.15h.62c10.31,12.15,22.61,25.38,39.38,25.38,13.23,0,23.07-7.54,23.07-19.84,0-13.54-12.31-20.3-29.84-26-22.3-7.08-33.84-18-33.84-32.3,0-15.69,13.54-29.84,37.53-29.84,14.61,0,27.69,5.54,36.61,10v19.07h-.62c-10-11.69-23.69-23.23-37.84-23.23-12.77,0-22,8-22,17.69,0,11.38,13.08,18.46,32,24.77,22.15,8,32,18.92,32,34.3,0,21.38-17.54,31.38-37.84,31.38-13.54,0-26.77-4.92-39.23-11.23Z"/>
        <path class="cls-1" d="M441.7,1.54h90.14v22.15h-.46c-4.15-3.23-14.61-16.46-25.23-16.46h-11.54v83.22c0,8.92,2.31,17.69,3.08,21.38v.46h-21.54v-.46c.77-3.69,3.08-12.46,3.08-21.38V7.23h-11.69c-10.61,0-21.23,13.23-25.23,16.46h-.62V1.54Z"/>
        <path class="cls-1" d="M535.53,56.45c0-33.07,23.07-56.45,50.76-56.45s50.76,23.54,50.76,56.45-23.23,57.68-50.76,57.68-50.76-24.61-50.76-57.68ZM619.67,56.3c0-26.15-12.77-50.61-33.38-50.61s-33.38,24.61-33.38,50.76,12.77,51.99,33.38,51.99,33.38-25.69,33.38-52.15Z"/>
        <path class="cls-1" d="M703.35,82.76c-4.77-11.08-11.84-19.23-21.38-21.38h-15.54v29.07c0,8.92,2.31,17.69,3.23,21.38v.46h-21.69v-.46c.77-3.69,3.08-12.46,3.08-21.38V23.38c0-8.92-2.31-17.69-3.08-21.38v-.46h43.38c21.38,0,35.53,10.92,35.53,29.23,0,17.07-12,26.77-28.46,28.92,7.69,2.31,13.84,7.08,18.15,15.38,9.54,19.38,12,27.69,20.61,36.61v.62h-18.61c-4-4.15-10.46-18.61-15.23-29.53ZM666.43,6.77v49.07h19.23c14.61,0,24.61-7.69,24.61-24.61s-8.92-24.46-23.53-24.46h-20.3ZM672.28,61.07c-.31.15-.62.15-.92.15.31,0,.62,0,.92-.15Z"/>
        <path class="cls-1" d="M728.42,2.15v-.62h25.54v.46c-.77,4.15-.62,12.61,3.85,21.38l20.92,41.53,20.15-38.46c5.23-10,5.23-19.54,4-24.3v-.62h17.69v.46c-2.15,3.69-7.84,11.23-11.84,19.07l-26.46,49.69v19.69c0,8.92,2.31,17.69,3.08,21.38v.46h-21.69v-.46c.77-3.69,3.08-12.46,3.08-21.38v-18.92l-26.46-50.61c-4.15-7.84-9.38-15.23-11.85-18.77Z"/>
      </g>
    </g>
  </g>
</svg>